<?xml version="1.0" encoding="UTF-8"?>
<svg version="1.1" xmlns="http://www.w3.org/2000/svg" width="228" height="228">
<path d="M0 0 C1.48746436 1.26111109 2.96752124 2.53105011 4.4375 3.8125 C5.06914062 4.32425781 5.70078125 4.83601563 6.3515625 5.36328125 C23.17285106 19.10931221 34.66229562 40.13989343 40.4375 60.8125 C40.7571875 61.87597656 41.076875 62.93945312 41.40625 64.03515625 C49.06649343 94.35695315 42.29569165 125.73087672 26.73828125 152.140625 C23.73071601 157.06094611 20.22247002 161.47067938 16.4375 165.8125 C15.92574219 166.44414062 15.41398438 167.07578125 14.88671875 167.7265625 C1.14068779 184.54785106 -19.88989343 196.03729562 -40.5625 201.8125 C-41.62597656 202.1321875 -42.68945312 202.451875 -43.78515625 202.78125 C-74.10695315 210.44149343 -105.48087672 203.67069165 -131.890625 188.11328125 C-136.81094611 185.10571601 -141.22067938 181.59747002 -145.5625 177.8125 C-146.19414062 177.30074219 -146.82578125 176.78898438 -147.4765625 176.26171875 C-164.29785106 162.51568779 -175.78729562 141.48510657 -181.5625 120.8125 C-181.8821875 119.74902344 -182.201875 118.68554688 -182.53125 117.58984375 C-190.19149343 87.26804685 -183.42069165 55.89412328 -167.86328125 29.484375 C-164.85571601 24.56405389 -161.34747002 20.15432062 -157.5625 15.8125 C-157.05074219 15.18085937 -156.53898437 14.54921875 -156.01171875 13.8984375 C-142.26568779 -2.92285106 -121.23510657 -14.41229562 -100.5625 -20.1875 C-99.49902344 -20.5071875 -98.43554688 -20.826875 -97.33984375 -21.15625 C-64.20002865 -29.52841382 -26.68935192 -21.14928948 0 0 Z " fill="#FAFBFC" transform="translate(184.5625,23.1875)"/>
<path d="M0 0 C12.71501093 6.45736157 18.85441186 19.70459211 23.24414062 32.60400391 C24.95567345 38.07188931 26.29464396 43.58455155 27.42578125 49.19921875 C27.56725586 49.86646973 27.70873047 50.5337207 27.85449219 51.22119141 C28.9140263 56.58628687 29.46826468 61.07978962 27.0078125 66.08203125 C24.96224587 68.94827432 22.7477921 71.55311772 20.42578125 74.19921875 C18.93240802 76.18863335 17.4533878 78.18889618 15.98828125 80.19921875 C1.31147336 99.65976437 -16.79773437 123.58350826 -41.57421875 130.19921875 C-50.67760385 130.96724628 -59.42905295 130.99857494 -66.82421875 125.13671875 C-73.12604867 119.20631299 -75.29138549 111.78482684 -75.8125 103.3359375 C-76.06053833 93.3930796 -75.07643942 84.59276631 -72.15087891 75.08886719 C-71.60349179 73.2951431 -71.10876683 71.48559575 -70.6171875 69.67578125 C-64.42098723 48.65047247 -52.46798117 30.04422512 -37.57421875 14.19921875 C-37.0121875 13.56113281 -36.45015625 12.92304687 -35.87109375 12.265625 C-26.79310067 2.37237526 -13.43052306 -4.17793206 0 0 Z " fill="#EC6518" transform="translate(118.57421875,43.80078125)"/>
<path d="M0 0 C1.90624407 1.81306717 3.36803223 3.70618237 4.91796875 5.82421875 C2.54527321 9.63815736 0.16938937 13.45010028 -2.20703125 17.26171875 C-2.8721875 18.33099609 -3.53734375 19.40027344 -4.22265625 20.50195312 C-8.07633751 26.67917749 -11.99539301 32.79830592 -16.08203125 38.82421875 C-18.95333369 36.115471 -20.35356569 33.45167897 -22.08203125 29.88671875 C-28.15954106 18.44670029 -36.07043918 10.13775792 -48.08203125 4.82421875 C-48.76523438 4.499375 -49.4484375 4.17453125 -50.15234375 3.83984375 C-57.62212849 0.41215032 -64.82465765 0.64119455 -72.89453125 0.63671875 C-74.04501953 0.62447266 -75.19550781 0.61222656 -76.38085938 0.59960938 C-82.67917218 0.58878133 -88.06418663 0.96356625 -94.08203125 2.82421875 C-95.23703125 3.14519531 -96.39203125 3.46617188 -97.58203125 3.796875 C-112.24694574 8.36329368 -124.61128052 15.57883012 -136.08203125 25.82421875 C-137.50902344 27.01917969 -137.50902344 27.01917969 -138.96484375 28.23828125 C-165.02804782 50.76287798 -179.33775154 82.95402974 -182.08203125 116.82421875 C-182.41203125 116.16421875 -182.74203125 115.50421875 -183.08203125 114.82421875 C-183.74203125 114.82421875 -184.40203125 114.82421875 -185.08203125 114.82421875 C-186.98997811 106.29664038 -187.469264 98.04784105 -187.45703125 89.32421875 C-187.45648743 88.6670285 -187.4559436 88.00983826 -187.4553833 87.33273315 C-187.35151804 59.93266097 -178.18651483 34.59226175 -160.08203125 13.82421875 C-159.57027344 13.19257812 -159.05851562 12.5609375 -158.53125 11.91015625 C-144.78521904 -4.91113231 -123.75463782 -16.40057687 -103.08203125 -22.17578125 C-102.01855469 -22.49546875 -100.95507812 -22.81515625 -99.859375 -23.14453125 C-65.35031991 -31.86260833 -27.26330065 -22.38312291 0 0 Z " fill="#848484" transform="translate(187.08203125,25.17578125)"/>
<path d="M0 0 C1.81325628 2.71988442 2.70421884 4.99708385 3.64770508 8.08959961 C7.39203386 20.35466686 13.13893651 31.45445484 24.5 38.3125 C28.28325406 40.13656892 32.03847325 41.60999062 36 43 C30.16260274 56.25635535 9.11696715 66.38666034 -3.88378906 71.78173828 C-8.18806825 73.44042221 -12.55996129 74.75960823 -17 76 C-18.06347656 76.3196875 -19.12695312 76.639375 -20.22265625 76.96875 C-50.54445315 84.62899343 -81.91837672 77.85819165 -108.328125 62.30078125 C-113.24844611 59.29321601 -117.65817938 55.78497002 -122 52 C-122.63164063 51.48824219 -123.26328125 50.97648437 -123.9140625 50.44921875 C-129.37000557 45.99072783 -134.08969905 40.86545143 -138 35 C-138 34.01 -138 33.02 -138 32 C-134.61403326 32.64163297 -132.26097459 33.95588768 -129.375 35.8125 C-111.29224821 46.86896261 -89.35616604 47.58989764 -69.00537109 42.97705078 C-48.76795372 37.83962988 -31.06661861 28.15130475 -15 15 C-13.83984375 14.05447266 -13.83984375 14.05447266 -12.65625 13.08984375 C-7.95707652 9.12265691 -3.92766244 4.72546887 0 0 Z " fill="#EC671B" transform="translate(161,149)"/>
<path d="M0 0 C8.89712296 7.39226834 11.8378102 26.0243664 13 37 C14.71865156 63.22603272 11.9088271 87.29045487 -2 110 C-12.36050822 104.16435845 -16.47186251 95.77133524 -20.05761719 84.81982422 C-20.988808 82.03348902 -21.96569435 79.26557065 -22.95388794 76.49900818 C-23.9117351 73.80811663 -24.85172947 71.11117852 -25.78863525 68.41293335 C-26.26066047 67.06066515 -26.7379535 65.71022358 -27.22064209 64.36172485 C-27.90458814 62.44214393 -28.56416102 60.51569593 -29.21875 58.5859375 C-29.60998047 57.4623584 -30.00121094 56.3387793 -30.40429688 55.18115234 C-31.36583522 50.04637995 -29.44020592 46.31129098 -26.671875 42.06640625 C-25.9766272 40.98564819 -25.9766272 40.98564819 -25.26733398 39.88305664 C-24.51625366 38.7343811 -24.51625366 38.7343811 -23.75 37.5625 C-22.67130255 35.88662175 -21.59456919 34.20947809 -20.51953125 32.53125 C-19.95057129 31.64308594 -19.38161133 30.75492188 -18.79541016 29.83984375 C-14.98112279 23.806693 -11.31530023 17.68140723 -7.63378906 11.56665039 C-7.07272461 10.63844482 -6.51166016 9.71023926 -5.93359375 8.75390625 C-5.43915771 7.93220947 -4.94472168 7.1105127 -4.43530273 6.26391602 C-3.05459742 4.086117 -1.5766387 2.03913498 0 0 Z " fill="#808080" transform="translate(215,62)"/>
<path d="M0 0 C0.66 0.33 1.32 0.66 2 1 C-11.87451083 17.37281503 -11.87451083 17.37281503 -18 20 C-14.3958073 12.10926745 -7.51566807 6.4826963 -1 1 C-0.67 0.67 -0.34 0.34 0 0 Z " fill="#B7B7B7" transform="translate(42,24)"/>
<path d="M0 0 C0.33 0 0.66 0 1 0 C0.99214478 0.99012085 0.99214478 0.99012085 0.98413086 2.00024414 C0.96321049 5.02098622 0.9502922 8.041713 0.9375 11.0625 C0.92912109 12.10083984 0.92074219 13.13917969 0.91210938 14.20898438 C0.89503558 19.58723069 1.04584848 24.70333211 2 30 C-1.90469752 27.39686832 -2.06786357 25.50532606 -3 21 C-2.71360019 19.65580357 -2.37771498 18.32144628 -2 17 C-1.79845811 15.63342346 -1.62081248 14.2631498 -1.46484375 12.890625 C-1.37783203 12.13652344 -1.29082031 11.38242188 -1.20117188 10.60546875 C-1.11416016 9.82816406 -1.02714844 9.05085937 -0.9375 8.25 C-0.84662109 7.45722656 -0.75574219 6.66445312 -0.66210938 5.84765625 C-0.4390369 3.89870723 -0.21919979 1.94938838 0 0 Z " fill="#BCBBBC" transform="translate(6,123)"/>
<path d="M0 0 C0.66 0 1.32 0 2 0 C3.5078125 1.96875 3.5078125 1.96875 5.125 4.5 C5.66382813 5.3353125 6.20265625 6.170625 6.7578125 7.03125 C7.16773438 7.6809375 7.57765625 8.330625 8 9 C7.34 9.66 6.68 10.32 6 11 C4.9944239 9.54550599 3.99569565 8.08627557 3 6.625 C2.443125 5.81289062 1.88625 5.00078125 1.3125 4.1640625 C0 2 0 2 0 0 Z " fill="#F6BC97" transform="translate(16,172)"/>
<path d="M0 0 C1.485 0.99 1.485 0.99 3 2 C3.6875 5.625 3.6875 5.625 4 9 C3.01 8.34 2.02 7.68 1 7 C0.3125 3.375 0.3125 3.375 0 0 Z " fill="#D8D7D8" transform="translate(4,144)"/>
</svg>
