<?xml version="1.0" encoding="UTF-8"?>
<svg version="1.1" xmlns="http://www.w3.org/2000/svg" width="828" height="828">
<path d="M0 0 C273.24 0 546.48 0 828 0 C828 273.24 828 546.48 828 828 C554.76 828 281.52 828 0 828 C0 554.76 0 281.52 0 0 Z " fill="#FEFEFE" transform="translate(0,0)"/>
<path d="M0 0 C21.84487526 -0.04678321 43.68974223 -0.08201979 65.53465748 -0.10362434 C75.67831411 -0.11392368 85.82193956 -0.1279583 95.96557617 -0.15087891 C104.80987005 -0.17085393 113.65414133 -0.18372619 122.49845713 -0.18817699 C127.17861936 -0.19077741 131.85871696 -0.19686146 136.53885841 -0.21146011 C140.95058669 -0.22510906 145.36222417 -0.22920795 149.77397156 -0.22621536 C151.38675112 -0.22676227 152.99953395 -0.23069592 154.61229515 -0.23841095 C178.98246214 -0.34920092 178.98246214 -0.34920092 188.625 8.375 C191.86319934 11.95406243 194.46670152 15.40010455 196 20 C196.33 13.4 196.66 6.8 197 0 C207.89 0 218.78 0 230 0 C230.03867187 8.09015625 230.03867187 8.09015625 230.078125 16.34375 C230.10330653 19.77088016 230.12964938 23.1979232 230.16015625 26.625 C230.20841459 32.05859654 230.25248797 37.49199131 230.27099609 42.92578125 C230.28619634 47.30915936 230.32070112 51.69200784 230.36830902 56.07514954 C230.38308822 57.74314253 230.39103902 59.41121116 230.39188385 61.07926941 C230.23225234 73.14983048 230.23225234 73.14983048 235 84 C239.26758257 88.16089301 242.01115286 88.86958379 247.8125 89.25 C253.28285717 89.15831804 257.45505056 87.58670483 261.3125 83.625 C264.54500373 78.59666087 265.30041143 74.36752313 265.31884766 68.45581055 C265.32889328 67.71380905 265.3389389 66.97180756 265.34928894 66.20732117 C265.3800547 63.76712787 265.39713747 61.32704397 265.4140625 58.88671875 C265.43277948 57.18991662 265.4523533 55.49312374 265.4727478 53.79634094 C265.52401902 49.33960432 265.56367151 44.88283753 265.60089111 40.42596436 C265.64801272 35.07354602 265.70958907 29.72127675 265.76873779 24.36898041 C265.856889 16.24604727 265.92669689 8.12314183 266 0 C276.89 0 287.78 0 299 0 C299.33 4.95 299.66 9.9 300 15 C301.175625 13.5975 302.35125 12.195 303.5625 10.75 C309.12036228 4.52792922 314.63950109 1.30227523 323 0 C328.13798078 -0.2821363 333.26874052 -0.2532154 338.41210938 -0.22705078 C339.96991977 -0.22648597 341.52773069 -0.22680459 343.08554077 -0.22793579 C347.29572371 -0.22850758 351.50579177 -0.21678149 355.7159481 -0.20278788 C360.12284125 -0.19025147 364.52973728 -0.18910773 368.93664551 -0.18673706 C377.27332308 -0.18053083 385.60994794 -0.16413163 393.94660234 -0.14403808 C403.44115846 -0.12165238 412.93571713 -0.11067894 422.43029308 -0.10064721 C441.95355939 -0.07976463 461.47677352 -0.04420058 481 0 C481 9.24 481 18.48 481 28 C469.78 28 458.56 28 447 28 C447 56.71 447 85.42 447 115 C436.11 115 425.22 115 414 115 C414 86.29 414 57.58 414 28 C397.24666085 28.19744492 397.24666085 28.19744492 380.49414062 28.45043945 C378.3815233 28.46505336 376.26889183 28.47779189 374.15625 28.48828125 C373.0744043 28.51386108 371.99255859 28.53944092 370.87792969 28.5657959 C363.74665592 28.56988118 359.64354597 27.30774635 354 23 C347.98770507 20.13094069 341.61945492 18.94537498 335 20 C332.25293506 21.23451096 330.14119813 22.85880187 328 25 C327.5199427 28.14704229 327.26970527 29.98476798 328 33 C334.15207733 40.97960618 346.24073568 42.40648561 355.47119141 44.44384766 C366.88732478 46.9866348 376.68775163 50.23907723 384 60 C385.66301731 63.24890919 386.90666207 66.5223206 388 70 C388.33 70.99 388.66 71.98 389 73 C390.14699464 83.32295178 387.90866596 92.21676975 382.0859375 100.83203125 C373.9142275 110.74208683 362.56671489 115.43883727 350 117 C336.42158198 118.03393237 320.10954278 118.40261003 308.4375 110.25 C306.671875 108.703125 306.671875 108.703125 305 107 C304.36578125 106.35546875 303.7315625 105.7109375 303.078125 105.046875 C299.58663374 101.26683074 297.21138907 97.67512885 295 93 C294.45472656 93.78503906 293.90945313 94.57007813 293.34765625 95.37890625 C285.12478207 106.83470533 276.41372654 114.46051497 262 117 C257.9550535 117.30538007 253.93019529 117.33387367 249.875 117.3125 C248.76568115 117.30686035 247.6563623 117.3012207 246.51342773 117.29541016 C232.52623401 117.08873814 220.95680208 115.07271296 210.1875 105.5 C209.465625 104.675 208.74375 103.85 208 103 C207.175 102.154375 206.35 101.30875 205.5 100.4375 C198.78662209 92.27947114 196.90781481 81.85529475 196.68359375 71.63671875 C196.66281265 70.84473587 196.64203156 70.05275299 196.62062073 69.23677063 C196.55552196 66.72043072 196.49642577 64.20399128 196.4375 61.6875 C196.394277 59.97590139 196.35066152 58.26431265 196.30664062 56.55273438 C196.19988153 52.36859016 196.09850365 48.18434638 196 44 C195.53392334 45.10843262 195.06784668 46.21686523 194.58764648 47.35888672 C191.32199285 54.84834672 187.11382721 58.84767708 179.5625 62 C177.71637285 62.68861675 175.86461862 63.3631516 174 64 C174.50789062 64.3403125 175.01578125 64.680625 175.5390625 65.03125 C190.64902311 75.6704732 197.16955211 94.81897513 202 112 C202 112.99 202 113.98 202 115 C191.44 115 180.88 115 170 115 C166 101 166 101 164.625 95.8125 C161.57532829 85.82728456 155.81119597 75.87413065 147 70 C142.71 69.34 138.42 68.68 134 68 C134 83.51 134 99.02 134 115 C123.11 115 112.22 115 101 115 C101 86.29 101 57.58 101 28 C90.77 28 80.54 28 70 28 C70 56.71 70 85.42 70 115 C59.11 115 48.22 115 37 115 C37 86.29 37 57.58 37 28 C32.38 28 27.76 28 23 28 C22.46375 26.185 21.9275 24.37 21.375 22.5 C18.23251339 13.17142961 13.80798276 7.4672931 5 3 C3.35544725 2.28050817 1.6975594 1.58353604 0 1 C0 0.67 0 0.34 0 0 Z " fill="#010101" transform="translate(255,340)"/>
<path d="M0 0 C9.24 0 18.48 0 28 0 C28.13885081 7.64707969 28.25795868 15.2896688 28.32958984 22.93701172 C28.35949342 25.53026263 28.40023172 28.1234148 28.45263672 30.71630859 C28.72810278 44.71106496 28.84946344 57.35301215 23.43359375 70.43334961 C18.6408519 82.35725384 17.90593753 97.96616328 22.34375 110.046875 C23 112 23 112 23 115 C15.41 115 7.82 115 0 115 C0 99.82 0 84.64 0 69 C-10.56 69 -21.12 69 -32 69 C-32 84.18 -32 99.36 -32 115 C-41.24 115 -50.48 115 -60 115 C-60 77.38 -60 39.76 -60 1 C-50.76 1 -41.52 1 -32 1 C-32 14.53 -32 28.06 -32 42 C-21.44 42 -10.88 42 0 42 C0 28.14 0 14.28 0 0 Z " fill="#821833" transform="translate(158,339)"/>
<path d="M0 0 C11.88 0 23.76 0 36 0 C36 30.36 36 60.72 36 92 C24.12 92 12.24 92 0 92 C0 61.64 0 31.28 0 0 Z " fill="#841C36" transform="translate(208,362)"/>
<path d="M0 0 C6.16376143 5.34192658 9.83097797 12.98227341 11 21 C12.93430324 50.02464063 3.01302974 75.09836937 -16 97 C-18.96381577 93.97969651 -19.3482657 91.52601373 -19.3732605 87.36195374 C-19.36247467 86.61892502 -19.35168884 85.8758963 -19.34057617 85.11035156 C-19.34123329 83.92441658 -19.34123329 83.92441658 -19.34190369 82.71452332 C-19.3398169 80.10630431 -19.31649139 77.49873145 -19.29296875 74.890625 C-19.2873724 73.08030549 -19.28310248 71.26998144 -19.28010559 69.45965576 C-19.2686599 64.69858217 -19.23919508 59.93778381 -19.20599365 55.17681885 C-19.1698865 49.46247546 -19.1561303 43.74803996 -19.13863373 38.03361511 C-19.10955757 29.35555207 -19.05206856 20.67809277 -19 12 C-30.88 12 -42.76 12 -55 12 C-55 11.67 -55 11.34 -55 11 C-50.545 10.505 -50.545 10.505 -46 10 C-45.67 9.01 -45.34 8.02 -45 7 C-42.88064465 5.37290104 -40.81338496 3.9213808 -38.5625 2.5 C-37.60960083 1.8978064 -37.60960083 1.8978064 -36.63745117 1.28344727 C-24.82480218 -5.95800624 -11.95552529 -8.29952986 0 0 Z " fill="#FCFAFA" transform="translate(263,350)"/>
<path d="M0 0 C4.94569839 2.05764569 8.96927876 6.00105752 11.37890625 10.8203125 C13.30520231 17.58052131 13.00154901 25.83233405 10.109375 32.28515625 C7.32858981 36.5836235 3.60074069 39.26632718 -1 41.375 C-7.6274179 42.75571206 -13.04203605 42.12322742 -19 39 C-23.09931399 35.72054881 -25.85494404 32.15275183 -27 27 C-27.76622477 19.06677032 -28.14556879 12.36425614 -23 6 C-16.02954031 -0.77486005 -9.34027816 -1.00246535 0 0 Z " fill="#0A0A0A" transform="translate(663,491)"/>
<path d="M0 0 C5 5 5 5 6.78125 6.80859375 C16.05905085 15.60141865 27.26754674 18.6871165 39.48901367 21.08837891 C46.45851061 22.54120503 52.31026236 24.90272635 57.0625 30.375 C58.37584888 34.05237687 58.06914842 36.25798051 57 40 C53.46930775 44.41336531 50.33685968 46.57278959 44.7421875 47.2890625 C38.16407321 47.67127709 34.03389629 46.22010243 29 42 C24.70612695 37.81622626 24.93144103 36.52008718 24 30 C16.08 30 8.16 30 0 30 C0 20.1 0 10.2 0 0 Z " fill="#F8F8F8" transform="translate(554,387)"/>
<path d="M0 0 C2.64 0 5.28 0 8 0 C9.55569868 5.27676175 10.88511282 10.57843206 12.125 15.9375 C12.30675781 16.71673828 12.48851562 17.49597656 12.67578125 18.29882812 C13.11873325 20.19885905 13.55958617 22.09937914 14 24 C16.140579 18.55348379 17.83367403 13.18922977 19.1875 7.5 C19.45336914 6.40945313 19.45336914 6.40945313 19.72460938 5.296875 C20.15414032 3.53231542 20.57771527 1.76630771 21 0 C24.3 0 27.6 0 31 0 C34.23376436 7.76103446 36.05023135 15.84462249 38 24 C40.36162044 16.04386124 42.5149 8.16805001 44 0 C46.97 0 49.94 0 53 0 C51.35649917 7.47421233 49.64524908 14.93231676 47.91333008 22.38647461 C47.59325948 23.76611189 47.2742676 25.14599983 46.95629883 26.52612305 C46.49282316 28.53751743 46.02608107 30.54812848 45.55859375 32.55859375 C45.28329834 33.74767334 45.00800293 34.93675293 44.72436523 36.16186523 C44 39 44 39 43 41 C40.03 41 37.06 41 34 41 C33.74605469 40.03320312 33.49210937 39.06640625 33.23046875 38.0703125 C32.88317854 36.75511162 32.53549525 35.4400145 32.1875 34.125 C32.00735352 33.44332764 31.82720703 32.76165527 31.64160156 32.05932617 C30.38667073 27.34889331 29.02135066 22.68809593 27.515625 18.05078125 C27 16 27 16 27 12 C26.34 12 25.68 12 25 12 C24.88785156 13.26714844 24.77570313 14.53429687 24.66015625 15.83984375 C24.06283195 21.21576247 22.80593618 26.33791032 21.4375 31.5625 C21.20353516 32.47580078 20.96957031 33.38910156 20.72851562 34.33007812 C20.15777883 36.55478684 19.5796634 38.77760047 19 41 C15.7 41 12.4 41 9 41 C7.87120025 36.6094561 6.75052557 32.21694297 5.63696289 27.82250977 C5.25794309 26.33139786 4.87680302 24.84082308 4.4934082 23.35083008 C2.50090203 15.60161768 0.56900093 8.01117186 0 0 Z " fill="#0D0D0D" transform="translate(151,491)"/>
<path d="M0 0 C4.29 0 8.58 0 13 0 C13.42152344 1.63710938 13.84304688 3.27421875 14.27734375 4.9609375 C14.83061141 7.09898881 15.38400325 9.23700799 15.9375 11.375 C16.35418945 12.99535156 16.35418945 12.99535156 16.77929688 14.6484375 C17.04677734 15.6796875 17.31425781 16.7109375 17.58984375 17.7734375 C17.83597412 18.72653809 18.08210449 19.67963867 18.33569336 20.66162109 C18.9206543 22.99611383 18.9206543 22.99611383 20 25 C20.176521 24.27820557 20.35304199 23.55641113 20.53491211 22.81274414 C21.3321266 19.56175537 22.13473835 16.31212325 22.9375 13.0625 C23.21529297 11.92619141 23.49308594 10.78988281 23.77929688 9.61914062 C24.04677734 8.53955078 24.31425781 7.45996094 24.58984375 6.34765625 C24.83597412 5.34742432 25.08210449 4.34719238 25.33569336 3.31665039 C26 1 26 1 27 0 C30.96 0 34.92 0 39 0 C39 13.53 39 27.06 39 41 C36.36 41 33.72 41 31 41 C30.505 28.625 30.505 28.625 30 16 C28.02 24.25 26.04 32.5 24 41 C21.03 41 18.06 41 15 41 C13.02 32.75 11.04 24.5 9 16 C8.67 24.25 8.34 32.5 8 41 C5.36 41 2.72 41 0 41 C0 27.47 0 13.94 0 0 Z " fill="#0D0D0D" transform="translate(687,491)"/>
<path d="M0 0 C2.64 0 5.28 0 8 0 C9.61948314 5.43475199 10.91965314 10.8973687 12.125 16.4375 C12.30675781 17.26443359 12.48851562 18.09136719 12.67578125 18.94335938 C13.11914069 20.96181155 13.55984589 22.98084643 14 25 C16.92608728 16.80695561 18.95838673 8.4462681 21 0 C24.63 0 28.26 0 32 0 C33.98 7.92 35.96 15.84 38 24 C39.37789677 20.55525807 40.35022601 17.88389254 41.0703125 14.35546875 C41.24433594 13.51435547 41.41835937 12.67324219 41.59765625 11.80664062 C41.77167969 10.94232422 41.94570312 10.07800781 42.125 9.1875 C42.30675781 8.30384766 42.48851562 7.42019531 42.67578125 6.50976562 C43.12132136 4.34068876 43.56122302 2.17045506 44 0 C46.97 0 49.94 0 53 0 C50.90513989 10.24023798 48.71202841 20.45138614 46.3125 30.625 C46.09827393 31.5430542 45.88404785 32.4611084 45.66333008 33.40698242 C45.36011841 34.67892456 45.36011841 34.67892456 45.05078125 35.9765625 C44.87200439 36.73018066 44.69322754 37.48379883 44.5090332 38.26025391 C44 40 44 40 43 41 C41.48071962 41.07179964 39.95832518 41.08392007 38.4375 41.0625 C37.61121094 41.05347656 36.78492188 41.04445313 35.93359375 41.03515625 C35.29550781 41.02355469 34.65742188 41.01195312 34 41 C33.79318604 40.21761963 33.58637207 39.43523926 33.37329102 38.62915039 C32.43988026 35.10599004 31.50126268 31.58423789 30.5625 28.0625 C30.07426758 26.21495117 30.07426758 26.21495117 29.57617188 24.33007812 C29.26357422 23.16025391 28.95097656 21.99042969 28.62890625 20.78515625 C28.34088135 19.70113525 28.05285645 18.61711426 27.75610352 17.50024414 C27.23960789 15.08222398 27.23960789 15.08222398 26 14 C25.0204985 17.74991262 24.04145696 21.49994519 23.0625 25.25 C22.78470703 26.31347656 22.50691406 27.37695312 22.22070312 28.47265625 C21.95322266 29.49746094 21.68574219 30.52226563 21.41015625 31.578125 C21.16402588 32.52075195 20.91789551 33.46337891 20.66430664 34.43457031 C20.09835245 36.62018099 19.54757208 38.80971167 19 41 C15.7 41 12.4 41 9 41 C8.75092896 39.91283691 8.75092896 39.91283691 8.49682617 38.80371094 C7.72825959 35.45219547 6.95788811 32.10109722 6.1875 28.75 C5.92646484 27.61046875 5.66542969 26.4709375 5.39648438 25.296875 C3.86721508 18.65116152 2.26934881 12.0323724 0.54418945 5.43457031 C0 3 0 3 0 0 Z " fill="#0C0C0C" transform="translate(210,491)"/>
<path d="M0 0 C2.64 0 5.28 0 8 0 C10.51466171 8.66681081 12.62265298 16.92480412 13 26 C13.66 26 14.32 26 15 26 C15.09796875 25.29617188 15.1959375 24.59234375 15.296875 23.8671875 C16.53970726 15.66020898 18.58185918 7.93525823 21 0 C24.3 0 27.6 0 31 0 C32.75610821 5.0713779 34.2060052 10.20226894 35.625 15.375 C35.85445312 16.20644531 36.08390625 17.03789062 36.3203125 17.89453125 C36.88162709 19.92929665 37.44101028 21.96459468 38 24 C39.55569868 18.72323825 40.88511282 13.42156794 42.125 8.0625 C42.30675781 7.28326172 42.48851562 6.50402344 42.67578125 5.70117188 C43.11873325 3.80114095 43.55958617 1.90062086 44 0 C46.97 0 49.94 0 53 0 C50.84690049 9.85133241 48.63192928 19.68637667 46.3125 29.5 C46.09827393 30.41354248 45.88404785 31.32708496 45.66333008 32.26831055 C45.46118896 33.11820557 45.25904785 33.96810059 45.05078125 34.84375 C44.87200439 35.59849609 44.69322754 36.35324219 44.5090332 37.13085938 C44 39 44 39 43 41 C40.03 41 37.06 41 34 41 C33.22772794 38.3962527 32.4571669 35.79201752 31.6875 33.1875 C31.47416016 32.46884766 31.26082031 31.75019531 31.04101562 31.00976562 C29.27581313 25.0291542 27.62348388 19.02050757 26 13 C25.68977905 14.21901001 25.68977905 14.21901001 25.37329102 15.46264648 C24.60636894 18.46938591 23.83635385 21.47531084 23.06420898 24.48071289 C22.73027733 25.78312758 22.39759068 27.08586212 22.06616211 28.38891602 C21.59033219 30.25880667 21.1096924 32.1274713 20.62890625 33.99609375 C20.34088135 35.12200928 20.05285645 36.2479248 19.75610352 37.40795898 C19 40 19 40 18 41 C16.48071962 41.07179964 14.95832518 41.08392007 13.4375 41.0625 C12.61121094 41.05347656 11.78492187 41.04445313 10.93359375 41.03515625 C10.29550781 41.02355469 9.65742187 41.01195312 9 41 C7.71066888 35.96650314 6.42916186 30.93110265 5.15478516 25.89379883 C4.72039486 24.18134225 4.28389179 22.46942013 3.84521484 20.75805664 C3.21412489 18.29451615 2.59072093 15.82913763 1.96875 13.36328125 C1.67345398 12.22080681 1.67345398 12.22080681 1.37219238 11.05525208 C0.43254603 7.29863608 -0.2413858 3.87893573 0 0 Z " fill="#0C0C0C" transform="translate(92,491)"/>
<path d="M0 0 C6.05814157 2.68830032 10.18108733 8.15765938 12.625 14.1875 C13.51758389 17.39030103 13.99481495 19.72197384 13.6875 23 C13.0275 22.67 12.3675 22.34 11.6875 22 C11.2734375 19.93359375 11.2734375 19.93359375 11.0625 17.4375 C10.98773438 16.61121094 10.91296875 15.78492188 10.8359375 14.93359375 C10.78695312 14.29550781 10.73796875 13.65742188 10.6875 13 C9.3675 13.33 8.0475 13.66 6.6875 14 C6.3575 15.32 6.0275 16.64 5.6875 18 C5.6875 17.34 5.6875 16.68 5.6875 16 C4.0375 16.66 2.3875 17.32 0.6875 18 C0.84347656 18.6290625 0.99945313 19.258125 1.16015625 19.90625 C2.47510993 25.68856288 2.76758392 30.16754686 1.6875 36 C2.6775 36 3.6675 36 4.6875 36 C5.1825 35.01 5.1825 35.01 5.6875 34 C6.0175 34.99 6.3475 35.98 6.6875 37 C5.6975 37.99 4.7075 38.98 3.6875 40 C1.6875 39 1.6875 39 0.6875 38 C-0.7975 37.505 -0.7975 37.505 -2.3125 37 C-0.8275 36.505 -0.8275 36.505 0.6875 36 C0.6875 33.69 0.6875 31.38 0.6875 29 C-0.6325 29 -1.9525 29 -3.3125 29 C-3.6425 29.99 -3.9725 30.98 -4.3125 32 C-6.7875 32.495 -6.7875 32.495 -9.3125 33 C-9.3125 33.66 -9.3125 34.32 -9.3125 35 C-10.6325 35.66 -11.9525 36.32 -13.3125 37 C-13.3125 37.66 -13.3125 38.32 -13.3125 39 C-16.60004511 38.42110619 -18.24922495 37.45171589 -20.5625 35.0625 C-21.08328125 34.53785156 -21.6040625 34.01320313 -22.140625 33.47265625 C-23.3125 32 -23.3125 32 -23.3125 30 C-24.3025 29.67 -25.2925 29.34 -26.3125 29 C-26.6425 25.04 -26.9725 21.08 -27.3125 17 C-28.3025 17 -29.2925 17 -30.3125 17 C-29.9825 21.29 -29.6525 25.58 -29.3125 30 C-32.44691494 25.29837759 -31.86483231 20.50234845 -31.3125 15 C-29.37342518 7.99843046 -24.49058723 3.5718058 -18.453125 -0.14453125 C-12.94379141 -2.34625398 -5.61218729 -1.70232687 0 0 Z " fill="#B6778C" transform="translate(234.3125,296)"/>
<path d="M0 0 C4.00125 -0.0825 8.0025 -0.165 12.125 -0.25 C13.37555176 -0.28641602 14.62610352 -0.32283203 15.91455078 -0.36035156 C22.23200939 -0.4234549 26.28877859 -0.40983014 31 4 C33.68819938 8.03229907 33.67303734 11.26381128 33 16 C31.3125 19 31.3125 19 29 21 C26.35546875 21.625 26.35546875 21.625 24 22 C24.92232422 23.21236328 24.92232422 23.21236328 25.86328125 24.44921875 C26.67981713 25.52854778 27.49621611 26.60798038 28.3125 27.6875 C28.91868164 28.48317383 28.91868164 28.48317383 29.53710938 29.29492188 C36 37.85956555 36 37.85956555 36 41 C32.46397037 41.70436003 29.50704181 41.93316025 26 41 C23.0222003 37.69259651 21.12288804 33.89013762 19 30 C15.71882784 25.53181555 13.83477025 24.97246171 8 24 C8 29.61 8 35.22 8 41 C5.36 41 2.72 41 0 41 C0 27.47 0 13.94 0 0 Z " fill="#090909" transform="translate(399,491)"/>
<path d="M0 0 C6.8815808 4.77719581 10.64116856 11.71255078 12.80859375 19.703125 C16.36614412 44.10255063 8.77669431 67.350785 -4.77734375 87.54296875 C-7.64064736 91.33126817 -10.56608415 95.04228232 -13.77734375 98.54296875 C-14.10734375 98.54296875 -14.43734375 98.54296875 -14.77734375 98.54296875 C-15.33653588 94.29133333 -15.80779149 90.26038164 -13.53515625 86.47265625 C-12.33347084 85.06053746 -11.12582475 83.65348123 -9.9140625 82.25 C2.15942922 66.95396753 8.07909259 46.87053377 6.22265625 27.54296875 C4.99198042 18.81727534 2.48425375 11.86017695 -4.453125 6.16796875 C-10.58364574 2.38726217 -17.85634255 2.4243502 -24.77734375 3.54296875 C-28.65747057 4.96584626 -32.15326064 6.93425443 -35.71875 9.01171875 C-38.78075311 10.54467561 -40.42151855 10.89292445 -43.77734375 10.54296875 C-33.05278342 -1.61153296 -14.84749109 -8.40024456 0 0 Z " fill="#86213D" transform="translate(260.77734375,348.45703125)"/>
<path d="M0 0 C4.04238059 2.00701645 6.50664403 4.21379279 9 8 C9 9.32 9 10.64 9 12 C3.04296875 12.390625 3.04296875 12.390625 1 12 C0.525625 11.34 0.05125 10.68 -0.4375 10 C-1.8398018 7.73600979 -1.8398018 7.73600979 -4.48046875 7.609375 C-5.37378906 7.65578125 -6.26710938 7.7021875 -7.1875 7.75 C-8.08855469 7.78609375 -8.98960937 7.8221875 -9.91796875 7.859375 C-10.60503906 7.90578125 -11.29210937 7.9521875 -12 8 C-12.33 9.32 -12.66 10.64 -13 12 C-8.9837554 13.83350297 -5.14878941 15.25536954 -0.875 16.375 C3.75693076 17.70042311 5.97489141 19.29180237 9 23 C9.33 23.33 9.66 23.66 10 24 C10.37318868 29.50453303 10.36055214 33.37924081 7 38 C2.44129653 41.44578056 -2.16782341 42.60723383 -7.828125 42.32421875 C-13.29302171 41.50841582 -17.40584637 39.25973763 -21 35 C-23.1519437 31.77208445 -23.20086443 30.71599191 -23 27 C-17.68057366 26.46805737 -17.68057366 26.46805737 -15 27 C-14.38125 27.99 -13.7625 28.98 -13.125 30 C-11.3665879 33.21342851 -11.3665879 33.21342851 -8.609375 33.46875 C-5.98920561 33.49869479 -3.57954399 33.46737382 -1 33 C-0.34 32.34 0.32 31.68 1 31 C1 29.68 1 28.36 1 27 C-3.02690556 25.16163007 -6.82902625 23.76792454 -11.125 22.6875 C-16.26079487 21.16085366 -18.37458062 19.72575488 -21 15 C-21.99185063 10.98947353 -21.98578595 7.73399039 -19.9140625 4.08984375 C-14.66539213 -1.54515007 -7.1592218 -1.09165439 0 0 Z " fill="#0C0C0C" transform="translate(513,491)"/>
<path d="M0 0 C2.97 0 5.94 0 9 0 C9.01981934 0.89307861 9.03963867 1.78615723 9.06005859 2.70629883 C9.13818698 6.02200708 9.22487971 9.33726162 9.31738281 12.65258789 C9.35564866 14.08707068 9.39050581 15.52164865 9.421875 16.95629883 C9.46757862 19.01938878 9.52556193 21.08182495 9.5859375 23.14453125 C9.6173584 24.38565674 9.6487793 25.62678223 9.68115234 26.90551758 C9.77399209 30.16636101 9.77399209 30.16636101 12 33 C14.13713301 33.40171173 14.13713301 33.40171173 16.5 33.25 C17.69109375 33.22679687 17.69109375 33.22679687 18.90625 33.203125 C21.05735328 33.12080522 21.05735328 33.12080522 23 32 C23.33 21.44 23.66 10.88 24 0 C26.97 0 29.94 0 33 0 C33.09932276 4.44736742 33.17168003 8.89413713 33.21972656 13.34228516 C33.23976791 14.85346736 33.26700905 16.36457272 33.30175781 17.87548828 C33.35061109 20.05520643 33.37304224 22.23389431 33.390625 24.4140625 C33.41157227 25.7232666 33.43251953 27.0324707 33.45410156 28.38134766 C32.81161277 33.50122338 30.69502331 36.62949397 26.71484375 39.84765625 C23.20726057 41.33648652 20.36675371 41.43366893 16.5625 41.4375 C15.28503906 41.45683594 14.00757813 41.47617187 12.69140625 41.49609375 C8.28591109 40.9040325 6.28573685 39.99262075 3 37 C-1.0678414 29.76828196 -0.34227147 22.10367518 -0.1875 14 C-0.17242476 12.63933774 -0.15874138 11.27865931 -0.14648438 9.91796875 C-0.11130983 6.61156157 -0.06208288 3.30599316 0 0 Z " fill="#131313" transform="translate(445,491)"/>
<path d="M0 0 C2.64 0 5.28 0 8 0 C8 5.28 8 10.56 8 16 C13.28 16 18.56 16 24 16 C24 10.72 24 5.44 24 0 C26.64 0 29.28 0 32 0 C32 13.53 32 27.06 32 41 C29.36 41 26.72 41 24 41 C24 35.06 24 29.12 24 23 C18.72 23 13.44 23 8 23 C8 28.94 8 34.88 8 41 C5.36 41 2.72 41 0 41 C0 27.47 0 13.94 0 0 Z " fill="#070707" transform="translate(291,491)"/>
<path d="M0 0 C2.74655613 2.04231097 4.60233076 3.91857928 6.4375 6.8125 C6.4375 8.1325 6.4375 9.4525 6.4375 10.8125 C3.7975 11.1425 1.1575 11.4725 -1.5625 11.8125 C-1.85125 11.173125 -2.14 10.53375 -2.4375 9.875 C-3.39073451 7.66043921 -3.39073451 7.66043921 -5.5625 6.8125 C-11.19569329 6.20068921 -11.19569329 6.20068921 -16 8.625 C-19.64069233 13.72196926 -19.1004015 19.80856997 -18.5625 25.8125 C-17.70594771 28.95512089 -17.13488136 29.55382368 -14.5625 31.8125 C-11.41989051 32.52724512 -8.70577617 32.52227204 -5.5625 31.8125 C-3.09009532 29.57188325 -2.61940157 27.98320471 -1.5625 24.8125 C1.4075 25.4725 4.3775 26.1325 7.4375 26.8125 C6.18170769 31.31242245 4.7109182 34.44555557 1.4375 37.8125 C-4.31437162 40.68843581 -10.28061206 40.43039062 -16.5625 39.8125 C-20.0625 38.3125 -20.0625 38.3125 -22.5625 35.8125 C-23.28566406 35.09513672 -23.28566406 35.09513672 -24.0234375 34.36328125 C-29.00823173 28.23556458 -28.53768233 20.20984186 -27.85351562 12.71337891 C-27.21628581 8.55107074 -25.50859145 5.7349597 -22.5625 2.8125 C-21.7375 1.9875 -20.9125 1.1625 -20.0625 0.3125 C-13.64928543 -2.43602053 -6.57571433 -2.19190478 0 0 Z " fill="#0B0B0B" transform="translate(617.5625,492.1875)"/>
<path d="M0 0 C0.33 0 0.66 0 1 0 C1.30657748 4.49136009 1.30657748 4.49136009 -0.03125 6.7109375 C-0.75828125 7.53464844 -0.75828125 7.53464844 -1.5 8.375 C-9.4755804 18.42952316 -14.0711239 29.60605535 -17 42 C-17.1750708 42.6293042 -17.3501416 43.2586084 -17.53051758 43.90698242 C-20.10741804 55.39516113 -18.80224076 69.05107724 -13.1875 79.3125 C-10.01035861 83.21584514 -6.87236795 86.37587735 -2 88 C0.28932678 88.12093495 2.58251324 88.17538326 4.875 88.1875 C6.08929688 88.20167969 7.30359375 88.21585937 8.5546875 88.23046875 C11.9124946 88.18547652 11.9124946 88.18547652 14.48828125 86.99609375 C17.84818811 85.6636268 20.71401102 85.80773852 24.3125 85.875 C25.56675781 85.89304687 26.82101563 85.91109375 28.11328125 85.9296875 C29.06589844 85.95289063 30.01851562 85.97609375 31 86 C28.26169684 88.96544351 25.7554456 90.87198109 22.125 92.625 C21.30257812 93.02976562 20.48015625 93.43453125 19.6328125 93.8515625 C11.36838044 97.45652248 2.40611355 98.71589921 -6.375 95.9375 C-13.69202011 92.63403523 -18.13060081 86.27549084 -21 79 C-21.35707031 78.15308594 -21.71414062 77.30617188 -22.08203125 76.43359375 C-27.759416 55.19775888 -19.99727482 32.17579564 -9.6875 13.7578125 C-6.75680159 8.96829149 -3.53618114 4.3632593 0 0 Z " fill="#86213D" transform="translate(205,370)"/>
<path d="M0 0 C22.08494208 -0.61776062 22.08494208 -0.61776062 28 4 C30.69080456 8.03620685 30.66642423 11.26005764 30 16 C28.18934617 19.273105 26.90093765 20.59598577 23.5 22.12109375 C18.82012756 23.29628493 14.42530922 23.21333007 9.625 23.125 C6.44875 23.08375 3.2725 23.0425 0 23 C0 15.41 0 7.82 0 0 Z " fill="#F6F6F6" transform="translate(389,363)"/>
<path d="M0 0 C2.87029869 1.79393668 4.49131638 2.98263276 6 6 C7.04725263 19.39109918 7.04725263 19.39109918 4.125 23.8125 C1.27514533 26.74617393 -0.33271566 27.18541445 -4.3125 27.3125 C-7.6463772 27.26426062 -8.93312198 27.03699635 -11.9375 25.375 C-15.86815437 20.84879194 -16.45180786 16.00361989 -16.32421875 10.18359375 C-15.81272866 6.7387388 -14.22477081 4.60616009 -12 2 C-7.98141405 -0.6790573 -4.72358279 -0.69610694 0 0 Z " fill="#F8F8F8" transform="translate(660,498)"/>
<path d="M0 0 C10.89 0 21.78 0 33 0 C33 2.31 33 4.62 33 7 C29.04 7 25.08 7 21 7 C21 18.22 21 29.44 21 41 C18.36 41 15.72 41 13 41 C13 29.78 13 18.56 13 7 C8.71 7 4.42 7 0 7 C0 4.69 0 2.38 0 0 Z " fill="#0B0B0B" transform="translate(532,491)"/>
<path d="M0 0 C10.56 0 21.12 0 32 0 C32 2.31 32 4.62 32 7 C28.04 7 24.08 7 20 7 C20 18.22 20 29.44 20 41 C17.36 41 14.72 41 12 41 C12 29.78 12 18.56 12 7 C8.04 7 4.08 7 0 7 C0 4.69 0 2.38 0 0 Z " fill="#080808" transform="translate(356,491)"/>
<path d="M0 0 C6.05814157 2.68830032 10.18108733 8.15765938 12.625 14.1875 C13.51758389 17.39030103 13.99481495 19.72197384 13.6875 23 C13.0275 22.67 12.3675 22.34 11.6875 22 C11.2734375 19.93359375 11.2734375 19.93359375 11.0625 17.4375 C10.98773438 16.61121094 10.91296875 15.78492188 10.8359375 14.93359375 C10.78695312 14.29550781 10.73796875 13.65742188 10.6875 13 C9.3675 13.33 8.0475 13.66 6.6875 14 C6.3575 15.32 6.0275 16.64 5.6875 18 C5.6875 17.34 5.6875 16.68 5.6875 16 C4.0375 16.66 2.3875 17.32 0.6875 18 C0.84347656 18.6290625 0.99945313 19.258125 1.16015625 19.90625 C2.47510993 25.68856288 2.76758392 30.16754686 1.6875 36 C2.6775 36 3.6675 36 4.6875 36 C5.1825 35.01 5.1825 35.01 5.6875 34 C6.0175 34.99 6.3475 35.98 6.6875 37 C5.6975 37.99 4.7075 38.98 3.6875 40 C1.6875 39 1.6875 39 0.6875 38 C-0.7975 37.505 -0.7975 37.505 -2.3125 37 C-0.8275 36.505 -0.8275 36.505 0.6875 36 C0.6875 33.69 0.6875 31.38 0.6875 29 C-0.6325 29 -1.9525 29 -3.3125 29 C-3.6425 29.99 -3.9725 30.98 -4.3125 32 C-6.7875 32.495 -6.7875 32.495 -9.3125 33 C-9.3125 33.66 -9.3125 34.32 -9.3125 35 C-10.6325 35.66 -11.9525 36.32 -13.3125 37 C-13.3125 37.66 -13.3125 38.32 -13.3125 39 C-16.60004511 38.42110619 -18.24922495 37.45171589 -20.5625 35.0625 C-21.08328125 34.53785156 -21.6040625 34.01320313 -22.140625 33.47265625 C-23.3125 32 -23.3125 32 -23.3125 30 C-24.3025 29.67 -25.2925 29.34 -26.3125 29 C-26.6425 25.04 -26.9725 21.08 -27.3125 17 C-28.3025 17 -29.2925 17 -30.3125 17 C-29.9825 21.29 -29.6525 25.58 -29.3125 30 C-32.44691494 25.29837759 -31.86483231 20.50234845 -31.3125 15 C-29.37342518 7.99843046 -24.49058723 3.5718058 -18.453125 -0.14453125 C-12.94379141 -2.34625398 -5.61218729 -1.70232687 0 0 Z M-13.3125 2 C-13.3125 2.66 -13.3125 3.32 -13.3125 4 C-14.6428125 4.185625 -14.6428125 4.185625 -16 4.375 C-19.05851742 4.95207876 -21.54893102 5.57873595 -24.3125 7 C-25.49481585 10.54694756 -25.53436116 13.80677753 -25.5625 17.5 C-25.583125 18.17675781 -25.60375 18.85351562 -25.625 19.55078125 C-25.69660241 23.5062682 -25.69660241 23.5062682 -23.81640625 26.8515625 C-23.32011719 27.23054688 -22.82382813 27.60953125 -22.3125 28 C-22.209375 28.61875 -22.10625 29.2375 -22 29.875 C-20.87911709 33.33954717 -18.1594288 34.81937368 -15.3125 37 C-14.9 36.38125 -14.4875 35.7625 -14.0625 35.125 C-11.31077372 31.78361809 -7.46876908 30.598354 -3.5625 28.875 C-2.76328125 28.52179688 -1.9640625 28.16859375 -1.140625 27.8046875 C-0.53734375 27.53914063 0.0659375 27.27359375 0.6875 27 C0.0275 24.36 -0.6325 21.72 -1.3125 19 C-2.3025 19 -3.2925 19 -4.3125 19 C-1.6725 17.68 0.9675 16.36 3.6875 15 C2.6465497 10.7688103 2.6465497 10.7688103 -0.375 8.25 C-1.344375 7.5075 -2.31375 6.765 -3.3125 6 C-4.9625 7.32 -6.6125 8.64 -8.3125 10 C-8.3125 9.34 -8.3125 8.68 -8.3125 8 C-6.9925 7.34 -5.6725 6.68 -4.3125 6 C-6.28670135 3.47740939 -7.27995642 3.0070192 -10.5 2.3125 C-11.428125 2.209375 -12.35625 2.10625 -13.3125 2 Z " fill="#B17086" transform="translate(234.3125,296)"/>
<path d="M0 0 C0.99 0 1.98 0 3 0 C3.08636719 0.80824219 3.17273438 1.61648438 3.26171875 2.44921875 C4.06349632 9.21310423 4.06349632 9.21310423 7.375 15 C8.24125 15.66 9.1075 16.32 10 17 C11.33333333 18.33333333 12.66666667 19.66666667 14 21 C16.84150997 19.57924502 18.91532645 17.41681697 21.24609375 15.27734375 C23 14 23 14 26 14 C26.33 13.34 26.66 12.68 27 12 C28.32 12 29.64 12 31 12 C31 14.66666667 31 17.33333333 31 20 C31.99 20.33 32.98 20.66 34 21 C32.3141395 23.97504794 31.12083295 24.94821445 27.9375 26.3125 C21.35436954 27.46193548 15.55523506 27.24457145 9.6875 23.8125 C5.2895797 20.71436991 1.72491682 17.50932747 0.1875 12.1875 C-0.05183522 8.11880128 -0.08148253 4.07412675 0 0 Z " fill="#C799A7" transform="translate(204,313)"/>
<path d="M0 0 C2.96857745 2.45230311 3.26368963 4.31844815 4 8 C5.41666667 9.58333333 5.41666667 9.58333333 7 11 C8.1875 13.1875 8.1875 13.1875 9 15 C4.25 17.875 4.25 17.875 2 19 C0.64691687 20.31328657 -0.68870078 21.64499081 -2 23 C-3.00894372 22.07213211 -4.00690907 21.13231567 -5 20.1875 C-5.556875 19.66542969 -6.11375 19.14335937 -6.6875 18.60546875 C-8 17 -8 17 -8 14 C-8.495 13.608125 -8.99 13.21625 -9.5 12.8125 C-11.96451197 9.83454803 -11.18529627 6.76769082 -11 3 C-9.35 2.67 -7.7 2.34 -6 2 C-5.67 2.66 -5.34 3.32 -5 4 C-4.54625 3.525625 -4.0925 3.05125 -3.625 2.5625 C-2 1 -2 1 0 0 Z " fill="#F7F1F2" transform="translate(220,310)"/>
<path d="M0 0 C2.64 0 5.28 0 8 0 C8 9.9 8 19.8 8 30 C5.36 30 2.72 30 0 30 C0 20.1 0 10.2 0 0 Z " fill="#111111" transform="translate(337,502)"/>
<path d="M0 0 C0.66 0 1.32 0 2 0 C3.89149659 6.61242196 5.2948328 13.48466098 2.03515625 19.8984375 C0.9375 21.5625 0.9375 21.5625 -1 24 C-2.98 23.67 -4.96 23.34 -7 23 C-6.95875 21.700625 -6.9175 20.40125 -6.875 19.0625 C-6.84767022 14.74439419 -7.575078 10.98722701 -8.7578125 6.84765625 C-8.83773437 6.23792969 -8.91765625 5.62820313 -9 5 C-8.34 4.34 -7.68 3.68 -7 3 C-5.68 3 -4.36 3 -3 3 C-1.37485532 1.54166642 -1.37485532 1.54166642 0 0 Z " fill="#C695A4" transform="translate(243,309)"/>
<path d="M0 0 C2.27024968 -0.08097324 4.54132075 -0.13917704 6.8125 -0.1875 C8.07707031 -0.22230469 9.34164063 -0.25710938 10.64453125 -0.29296875 C14 0 14 0 15.953125 1.3203125 C17 3 17 3 16.9375 6.0625 C16 9 16 9 14.33203125 10.17578125 C11.36574674 11.22416656 8.88901685 11.1932395 5.75 11.125 C4.67234375 11.10695313 3.5946875 11.08890625 2.484375 11.0703125 C1.66453125 11.04710937 0.8446875 11.02390625 0 11 C0 7.37 0 3.74 0 0 Z " fill="#E4E4E4" transform="translate(407,498)"/>
<path d="M0 0 C0.33 0 0.66 0 1 0 C1.30657748 4.49136009 1.30657748 4.49136009 -0.03125 6.7109375 C-0.75828125 7.53464844 -0.75828125 7.53464844 -1.5 8.375 C-9.4755804 18.42952316 -14.0711239 29.60605535 -17 42 C-17.25910156 42.95338257 -17.25910156 42.95338257 -17.5234375 43.92602539 C-18.00469505 46.02043261 -18.20270641 47.96532094 -18.31640625 50.109375 C-18.35830078 50.86347656 -18.40019531 51.61757813 -18.44335938 52.39453125 C-18.50233398 53.56048828 -18.50233398 53.56048828 -18.5625 54.75 C-18.60568359 55.54277344 -18.64886719 56.33554687 -18.69335938 57.15234375 C-18.79902991 59.10137815 -18.89997966 61.05066748 -19 63 C-19.33 63 -19.66 63 -20 63 C-20.06058594 61.96359375 -20.12117187 60.9271875 -20.18359375 59.859375 C-20.26803371 58.48957127 -20.35267997 57.11978025 -20.4375 55.75 C-20.47681641 55.06808594 -20.51613281 54.38617188 -20.55664062 53.68359375 C-20.78222988 49.8009171 -20.78222988 49.8009171 -21.578125 46.00805664 C-22.33129288 42.42309957 -20.724246 39.06309246 -19.5625 35.6875 C-19.15523682 34.49241821 -19.15523682 34.49241821 -18.73974609 33.27319336 C-14.45156054 21.16431189 -8.24407115 9.88877362 0 0 Z " fill="#8B2947" transform="translate(205,370)"/>
<path d="M0 0 C5.46875 4.39453125 5.46875 4.39453125 7 6 C7 6.99 7 7.98 7 9 C5.39967863 9.84069415 3.79458829 10.67231505 2.1875 11.5 C1.29417969 11.9640625 0.40085938 12.428125 -0.51953125 12.90625 C-3 14 -3 14 -6 14 C-6.99 11.69 -7.98 9.38 -9 7 C-6.03 4.69 -3.06 2.38 0 0 Z " fill="#EEE3E7" transform="translate(231,302)"/>
<path d="M0 0 C1.32 0.33 2.64 0.66 4 1 C3.67 1.99 3.34 2.98 3 4 C3.52400138 5.93225509 4.04917951 7.86421837 4.5859375 9.79296875 C5.25583466 13.36364699 4.63505366 16.44369949 4 20 C4.99 20 5.98 20 7 20 C7.33 19.34 7.66 18.68 8 18 C8.495 19.485 8.495 19.485 9 21 C8.01 21.99 7.02 22.98 6 24 C4 23 4 23 3 22 C2.01 21.67 1.02 21.34 0 21 C0.99 20.67 1.98 20.34 3 20 C3 17.69 3 15.38 3 13 C1.68 13 0.36 13 -1 13 C-1.33 13.99 -1.66 14.98 -2 16 C-3.65 16.33 -5.3 16.66 -7 17 C-7 17.66 -7 18.32 -7 19 C-8.98 19.99 -8.98 19.99 -11 21 C-11 21.66 -11 22.32 -11 23 C-14.28754511 22.42110619 -15.93672495 21.45171589 -18.25 19.0625 C-18.77078125 18.53785156 -19.2915625 18.01320313 -19.828125 17.47265625 C-21 16 -21 16 -21 14 C-21.99 13.67 -22.98 13.34 -24 13 C-22.68 12.67 -21.36 12.34 -20 12 C-19.5875 12.763125 -19.175 13.52625 -18.75 14.3125 C-17.04124191 16.9366642 -15.58982247 18.30321976 -13 20 C-11.06201737 17.22739701 -11.06201737 17.22739701 -10 15 C-8.01363702 14.29373761 -6.01151741 13.63106429 -4 13 C-2.9171875 12.443125 -2.9171875 12.443125 -1.8125 11.875 C0 11 0 11 3 11 C2.34 8.36 1.68 5.72 1 3 C-0.65 3.33 -2.3 3.66 -4 4 C-2.68 3.34 -1.36 2.68 0 2 C0 1.34 0 0.68 0 0 Z " fill="#B27186" transform="translate(232,312)"/>
<path d="M0 0 C0.99 0 1.98 0 3 0 C3.08636719 0.80824219 3.17273438 1.61648438 3.26171875 2.44921875 C4.114392 8.93422909 4.63862303 12.78748952 10 17 C11.35555293 18.64864545 12.69631653 20.31003995 14 22 C13 23 13 23 10.671875 23.2890625 C6.4385064 22.83106648 5.01412188 20.32145031 2.44921875 17.14453125 C-0.97262792 12.08093605 -0.11773276 5.88663793 0 0 Z " fill="#E3CCD4" transform="translate(204,313)"/>
<path d="M0 0 C0.33 6.27 0.66 12.54 1 19 C2.32 19.33 3.64 19.66 5 20 C3.35 20.33 1.7 20.66 0 21 C-1.29243536 16.8803623 -2.26252625 13.33168317 -2 9 C-2.99 9 -3.98 9 -5 9 C-4.67 13.29 -4.34 17.58 -4 22 C-7.11199433 17.3320085 -6.48342981 12.46925064 -6 7 C-3.38983051 0 -3.38983051 0 0 0 Z " fill="#C28D9F" transform="translate(209,304)"/>
<path d="M0 0 C5.53846154 0.61538462 5.53846154 0.61538462 7.875 2.5625 C8.431875 3.2740625 8.431875 3.2740625 9 4 C7.02 4.99 7.02 4.99 5 6 C5 6.66 5 7.32 5 8 C3.35 8.66 1.7 9.32 0 10 C-0.99 7.69 -1.98 5.38 -3 3 C-2.01 2.67 -1.02 2.34 0 2 C0 1.34 0 0.68 0 0 Z " fill="#E8D7DD" transform="translate(221,298)"/>
<path d="M0 0 C5.38661332 0.13466533 8.35946956 2.29711252 12.1640625 5.83203125 C16.37977089 10.81015499 18.27660296 16.52288061 18 23 C17.34 22.67 16.68 22.34 16 22 C15.5859375 19.93359375 15.5859375 19.93359375 15.375 17.4375 C15.26285156 16.19806641 15.26285156 16.19806641 15.1484375 14.93359375 C15.09945312 14.29550781 15.05046875 13.65742188 15 13 C13.68 13.33 12.36 13.66 11 14 C10.67 15.32 10.34 16.64 10 18 C10 17.34 10 16.68 10 16 C8.68 15.67 7.36 15.34 6 15 C6.66 15 7.32 15 8 15 C8.33 14.01 8.66 13.02 9 12 C9.99 12 10.98 12 12 12 C11.75881648 8.74402242 10.47775788 7.2723696 8.125 5.1875 C7.09375 4.465625 6.0625 3.74375 5 3 C4.01 3.33 3.02 3.66 2 4 C2 3.34 2 2.68 2 2 C1.34 1.34 0.68 0.68 0 0 Z " fill="#B87A8F" transform="translate(230,296)"/>
<path d="M0 0 C2.64 0 5.28 0 8 0 C8 2.64 8 5.28 8 8 C5.36 8 2.72 8 0 8 C0 5.36 0 2.72 0 0 Z " fill="#171717" transform="translate(569,524)"/>
<path d="M0 0 C2.64 0 5.28 0 8 0 C8 2.64 8 5.28 8 8 C5.36 8 2.72 8 0 8 C0 5.36 0 2.72 0 0 Z " fill="#171717" transform="translate(269,524)"/>
<path d="M0 0 C2.64 0 5.28 0 8 0 C8 2.64 8 5.28 8 8 C5.36 8 2.72 8 0 8 C0 5.36 0 2.72 0 0 Z " fill="#242424" transform="translate(337,491)"/>
<path d="M0 0 C1.32 0 2.64 0 4 0 C4 2.31 4 4.62 4 7 C1.875 8.25 1.875 8.25 -1 9 C-4.3125 7.125 -4.3125 7.125 -7 5 C-5.6875 3.5 -5.6875 3.5 -4 2 C-3.01 2 -2.02 2 -1 2 C-0.67 1.34 -0.34 0.68 0 0 Z " fill="#EFE5E6" transform="translate(231,325)"/>
<path d="M0 0 C3.00617269 3.00617269 2.59585316 5.82381598 3 10 C1.02 10.33 -0.96 10.66 -3 11 C-4.60725635 7.78548731 -4.05748185 4.56387464 -4 1 C-2.125 0.375 -2.125 0.375 0 0 Z " fill="#F9F6F7" transform="translate(213,312)"/>
<path d="M0 0 C4 5.41176471 4 5.41176471 4 8 C1.35261084 9.4606285 0.10551666 10 -3 10 C-3.99 7.69 -4.98 5.38 -6 3 C-2.25 0 -2.25 0 0 0 Z " fill="#F8F4F6" transform="translate(228,306)"/>
<path d="M0 0 C2.89932357 2.39509338 3.50168276 4.31245243 4 8 C1.35261084 9.4606285 0.10551666 10 -3 10 C-4.35439668 7.29120665 -4.06501451 4.99066732 -4 2 C-2.68 1.34 -1.36 0.68 0 0 Z " fill="#FAF7F8" transform="translate(220,310)"/>
<path d="M0 0 C1.32 2.31 2.64 4.62 4 7 C2.68 7.99 1.36 8.98 0 10 C-1.00894372 9.07213211 -2.00690907 8.13231567 -3 7.1875 C-3.8353125 6.40439453 -3.8353125 6.40439453 -4.6875 5.60546875 C-6 4 -6 4 -6 1 C-4 0 -4 0 0 0 Z " fill="#FAF7F8" transform="translate(218,323)"/>
<path d="M0 0 C1.32 0 2.64 0 4 0 C5.60725635 3.21451269 5.05748185 6.43612536 5 10 C3.35 10 1.7 10 0 10 C-0.38922918 8.71254964 -0.76098036 7.41980403 -1.125 6.125 C-1.43824219 5.04605469 -1.43824219 5.04605469 -1.7578125 3.9453125 C-1.83773437 3.30335938 -1.91765625 2.66140625 -2 2 C-1.34 1.34 -0.68 0.68 0 0 Z " fill="#F9F7F7" transform="translate(236,312)"/>
<path d="M0 0 C3.50496269 1.94720149 6.49967216 3.82650697 9 7 C8.75 9.25 8.75 9.25 8 11 C5.27425729 10.62669176 4.19177915 10.20805399 2.296875 8.15234375 C1.53117188 7.05599609 1.53117188 7.05599609 0.75 5.9375 C0.22921875 5.20402344 -0.2915625 4.47054688 -0.828125 3.71484375 C-1.21484375 3.14894531 -1.6015625 2.58304687 -2 2 C-1.34 1.34 -0.68 0.68 0 0 Z " fill="#FAF8F9" transform="translate(234,298)"/>
<path d="M0 0 C1.32 0.33 2.64 0.66 4 1 C3.67 1.99 3.34 2.98 3 4 C3.52400138 5.93225509 4.04917951 7.86421837 4.5859375 9.79296875 C5.25583466 13.36364699 4.63505366 16.44369949 4 20 C4.99 20 5.98 20 7 20 C7.33 19.34 7.66 18.68 8 18 C8.33 18.99 8.66 19.98 9 21 C8.01 21.99 7.02 22.98 6 24 C4 23 4 23 3 22 C2.01 21.67 1.02 21.34 0 21 C0.99 20.67 1.98 20.34 3 20 C2.34 14.39 1.68 8.78 1 3 C-0.65 3.33 -2.3 3.66 -4 4 C-2.68 3.34 -1.36 2.68 0 2 C0 1.34 0 0.68 0 0 Z " fill="#AE697F" transform="translate(232,312)"/>
<path d="M0 0 C0.66 2.64 1.32 5.28 2 8 C0.02 8.33 -1.96 8.66 -4 9 C-5.36741555 6.74778616 -6.04066478 5.47442242 -5.8125 2.8125 C-5.544375 2.214375 -5.27625 1.61625 -5 1 C-2 0 -2 0 0 0 Z " fill="#FAF7F7" transform="translate(233,315)"/>
<path d="M0 0 C1.04976964 3.14930893 1.10131595 5.38814456 1.0625 8.6875 C1.05347656 9.68136719 1.04445312 10.67523438 1.03515625 11.69921875 C1.02355469 12.45847656 1.01195312 13.21773438 1 14 C0.01 14 -0.98 14 -2 14 C-2.33872513 12.58461283 -2.67074624 11.16762037 -3 9.75 C-3.185625 8.96109375 -3.37125 8.1721875 -3.5625 7.359375 C-4 5 -4 5 -4 1 C-2 0 -2 0 0 0 Z " fill="#FAF7F8" transform="translate(245,309)"/>
<path d="M0 0 C0.33 0.66 0.66 1.32 1 2 C1.66 2 2.32 2 3 2 C2.84660156 2.97066406 2.69320312 3.94132812 2.53515625 4.94140625 C1.91790015 9.26219894 1.66519605 13.58141318 1.4375 17.9375 C1.39431641 18.71673828 1.35113281 19.49597656 1.30664062 20.29882812 C1.20171923 22.19907117 1.1004755 24.09951669 1 26 C0.67 26 0.34 26 0 26 C-0.06058594 24.96359375 -0.12117187 23.9271875 -0.18359375 22.859375 C-0.26803371 21.48957127 -0.35267997 20.11978025 -0.4375 18.75 C-0.47681641 18.06808594 -0.51613281 17.38617188 -0.55664062 16.68359375 C-0.72781278 13.97117346 -0.89861975 11.3841778 -1.59375 8.75 C-2.30892897 5.66922904 -0.95690798 2.92701266 0 0 Z " fill="#9A445C" transform="translate(185,407)"/>
<path d="M0 0 C3 0 3 0 4.82421875 1.75 C5.43910156 2.4925 6.05398437 3.235 6.6875 4 C7.31011719 4.7425 7.93273437 5.485 8.57421875 6.25 C9.04472656 6.8275 9.51523438 7.405 10 8 C9.67 8.66 9.34 9.32 9 10 C5.64749299 9.42424336 4.06181371 8.40693737 1.75 5.9375 C1.22921875 5.38964844 0.7084375 4.84179688 0.171875 4.27734375 C-0.21484375 3.85582031 -0.6015625 3.43429687 -1 3 C-0.67 2.01 -0.34 1.02 0 0 Z " fill="#F9F8F9" transform="translate(208,326)"/>
<path d="M0 0 C1.32 0 2.64 0 4 0 C4 2.64 4 5.28 4 8 C2.35 8 0.7 8 -1 8 C-0.67 5.36 -0.34 2.72 0 0 Z " fill="#F9F5F6" transform="translate(210,303)"/>
<path d="M0 0 C0 0.66 0 1.32 0 2 C0.66 2.33 1.32 2.66 2 3 C0.4156683 2.91231752 -1.16753567 2.80412671 -2.75 2.6875 C-4.07257813 2.60048828 -4.07257813 2.60048828 -5.421875 2.51171875 C-8.32303774 1.9358819 -9.79225607 0.92403852 -12 -1 C-7.65429709 -2.44856764 -4.27334122 -1.42444707 0 0 Z " fill="#D1ACB9" transform="translate(226,337)"/>
<path d="M0 0 C1.32 1.32 2.64 2.64 4 4 C3.34 4.66 2.68 5.32 2 6 C1.63105418 8.03060659 1.63105418 8.03060659 1.5859375 10.3515625 C1.54726563 11.20234375 1.50859375 12.053125 1.46875 12.9296875 C1.4378125 13.81914062 1.406875 14.70859375 1.375 15.625 C1.33632813 16.5221875 1.29765625 17.419375 1.2578125 18.34375 C1.16340643 20.5622927 1.07783252 22.78082403 1 25 C0.67 25 0.34 25 0 25 C0 16.75 0 8.5 0 0 Z " fill="#E3E3E3" transform="translate(554,387)"/>
<path d="M0 0 C1.65 0 3.3 0 5 0 C4.125 5.75 4.125 5.75 3 8 C2.01 8 1.02 8 0 8 C0 5.36 0 2.72 0 0 Z " fill="#F7F4F3" transform="translate(236,324)"/>
<path d="M0 0 C3.79588866 0.54226981 5.47211993 2.20127563 8 5 C3.82412255 6.39195915 1.86525224 4.82323219 -2 3 C-1.34 2.01 -0.68 1.02 0 0 Z " fill="#F6F2F2" transform="translate(222,331)"/>
<path d="M0 0 C0.99 0.33 1.98 0.66 3 1 C4.1875 4.0625 4.1875 4.0625 5 7 C3.35 7.33 1.7 7.66 0 8 C0 5.36 0 2.72 0 0 Z " fill="#FAF9F9" transform="translate(215,302)"/>
<path d="M0 0 C5.53846154 0.61538462 5.53846154 0.61538462 7.875 2.5625 C8.431875 3.2740625 8.431875 3.2740625 9 4 C7.02 4.99 7.02 4.99 5 6 C3.2925002 4.71937515 1.62626404 3.38232443 0 2 C0 1.34 0 0.68 0 0 Z " fill="#F9F6F7" transform="translate(221,298)"/>
<path d="M0 0 C0.33 0 0.66 0 1 0 C1.36458333 4.49652778 1.36458333 4.49652778 -0.3125 6.8125 C-2 8 -2 8 -5 8 C-3.6299034 5.0490227 -2.06764583 2.51713405 0 0 Z " fill="#953F5C" transform="translate(205,370)"/>
<path d="M0 0 C1.258125 -0.04125 2.51625 -0.0825 3.8125 -0.125 C4.52019531 -0.14820313 5.22789062 -0.17140625 5.95703125 -0.1953125 C8 0 8 0 11 2 C10.67 2.66 10.34 3.32 10 4 C6.7 3.01 3.4 2.02 0 1 C0 0.67 0 0.34 0 0 Z " fill="#F4EDEF" transform="translate(222,296)"/>
<path d="M0 0 C0.33 0.66 0.66 1.32 1 2 C1.99 2.33 2.98 2.66 4 3 C4.33 4.98 4.66 6.96 5 9 C4.01 8.34 3.02 7.68 2 7 C2 6.34 2 5.68 2 5 C0.68 4.67 -0.64 4.34 -2 4 C-1.34 4 -0.68 4 0 4 C0 2.68 0 1.36 0 0 Z " fill="#B5738A" transform="translate(216,318)"/>
<path d="M0 0 C0.66 1.32 1.32 2.64 2 4 C0.625 6 0.625 6 -1 8 C-1.66 8 -2.32 8 -3 8 C-1.125 2.25 -1.125 2.25 0 0 Z " fill="#91334F" transform="translate(194,386)"/>
<path d="M0 0 C0.66 0 1.32 0 2 0 C2 2.31 2 4.62 2 7 C1.34 7 0.68 7 0 7 C-0.38133299 5.0085944 -0.71325582 3.00720923 -1 1 C-0.67 0.67 -0.34 0.34 0 0 Z " fill="#F9F8F6" transform="translate(233,325)"/>
<path d="M0 0 C0.99 0.33 1.98 0.66 3 1 C1.8125 2.5 1.8125 2.5 0 4 C-2.6875 4.1875 -2.6875 4.1875 -5 4 C-3.36587557 2.29159719 -2.13093906 1.06546953 0 0 Z " fill="#F8F5F6" transform="translate(217,297)"/>
</svg>
