<?xml version="1.0" encoding="UTF-8"?>
<svg version="1.1" xmlns="http://www.w3.org/2000/svg" width="694" height="470">
<path d="M0 0 C6.6 0 13.2 0 20 0 C21.61737724 4.85213172 22.22942798 7.18201244 22 12 C22.66 12 23.32 12 24 12 C24 14.64 24 17.28 24 20 C24.99 20 25.98 20 27 20 C27.33 23.96 27.66 27.92 28 32 C28.66 32 29.32 32 30 32 C30 33.98 30 35.96 30 38 C30.66 38 31.32 38 32 38 C32 40.64 32 43.28 32 46 C32.66 46 33.32 46 34 46 C34.33 43.36 34.66 40.72 35 38 C35.66 38 36.32 38 37 38 C37 33.71 37 29.42 37 25 C36.34 25 35.68 25 35 25 C34.7525 24.05125 34.505 23.1025 34.25 22.125 C33.14195134 18.15047763 31.51891044 14.47017282 29.8046875 10.72265625 C29 8 29 8 29 0 C41.87 0 54.74 0 68 0 C68 2.31 68 4.62 68 7 C67.34 7 66.68 7 66 7 C66 8.98 66 10.96 66 13 C65.34 13 64.68 13 64 13 C64 14.98 64 16.96 64 19 C63.34 19 62.68 19 62 19 C62 20.98 62 22.96 62 25 C61.34 25 60.68 25 60 25 C60 29.29 60 33.58 60 38 C60.66 38 61.32 38 62 38 C62 39.98 62 41.96 62 44 C62.66 44 63.32 44 64 44 C64.33 42.68 64.66 41.36 65 40 C65.66 40 66.32 40 67 40 C67 38.02 67 36.04 67 34 C67.66 34 68.32 34 69 34 C69 32.02 69 30.04 69 28 C69.66 28 70.32 28 71 28 C71 26.02 71 24.04 71 22 C71.66 22 72.32 22 73 22 C73 19.36 73 16.72 73 14 C73.66 14 74.32 14 75 14 C75 12.02 75 10.04 75 8 C75.66 8 76.32 8 77 8 C77 6.02 77 4.04 77 2 C77.66 2 78.32 2 79 2 C79 1.34 79 0.68 79 0 C85.6 0 92.2 0 99 0 C98.67 2.97 98.34 5.94 98 9 C97.34 9 96.68 9 96 9 C96 10.98 96 12.96 96 15 C95.34 15 94.68 15 94 15 C94 16.98 94 18.96 94 21 C93.34 21 92.68 21 92 21 C92 22.98 92 24.96 92 27 C91.34 27 90.68 27 90 27 C90 28.98 90 30.96 90 33 C89.34 33 88.68 33 88 33 C88 34.98 88 36.96 88 39 C87.34 39 86.68 39 86 39 C86 40.98 86 42.96 86 45 C85.34 45 84.68 45 84 45 C84 46.65 84 48.3 84 50 C83.34 50 82.68 50 82 50 C82 51.98 82 53.96 82 56 C81.34 56 80.68 56 80 56 C80 57.98 80 59.96 80 62 C79.34 62 78.68 62 78 62 C78 63.98 78 65.96 78 68 C77.34 68 76.68 68 76 68 C76 69.98 76 71.96 76 74 C75.34 74 74.68 74 74 74 C74 75.98 74 77.96 74 80 C67.73 80 61.46 80 55 80 C55 78.68 55 77.36 55 76 C54.34 76 53.68 76 53 76 C51.39644899 72.49223216 50.77963136 69.85645121 51 66 C49.35 66 47.7 66 46 66 C46 67.98 46 69.96 46 72 C45.34 72 44.68 72 44 72 C44 73.98 44 75.96 44 78 C37.4 78 30.8 78 24 78 C20.625 69 20.625 69 20.3125 64.5 C20.21388672 63.21609375 20.21388672 63.21609375 20.11328125 61.90625 C20.07589844 61.2771875 20.03851563 60.648125 20 60 C19.01 60 18.02 60 17 60 C17 58.02 17 56.04 17 54 C16.34 54 15.68 54 15 54 C14.67 50.04 14.34 46.08 14 42 C13.34 42 12.68 42 12 42 C12 40.35 12 38.7 12 37 C11.01 36.67 10.02 36.34 9 36 C8.67 32.7 8.34 29.4 8 26 C7.34 26 6.68 26 6 26 C6 24.35 6 22.7 6 21 C5.34 21 4.68 21 4 21 C4 19.02 4 17.04 4 15 C3.34 15 2.68 15 2 15 C2 13.02 2 11.04 2 9 C1.34 9 0.68 9 0 9 C0 6.03 0 3.06 0 0 Z " fill="#3073B1" transform="translate(81,193)"/>
<path d="M0 0 C11.22 0 22.44 0 34 0 C34 0.66 34 1.32 34 2 C35.98 2 37.96 2 40 2 C40 2.66 40 3.32 40 4 C40.66 4 41.32 4 42 4 C42 4.66 42 5.32 42 6 C42.99 6 43.98 6 45 6 C45 7.32 45 8.64 45 10 C45.66 10 46.32 10 47 10 C48.45079988 15.02048314 48.26366963 20.06095903 48.3125 25.25 C48.34150391 26.26191406 48.37050781 27.27382812 48.40039062 28.31640625 C48.45700273 35.03147266 47.49122654 39.24326354 44 45 C43.34 45 42.68 45 42 45 C42 45.66 42 46.32 42 47 C38.535 47.495 38.535 47.495 35 48 C35 48.66 35 49.32 35 50 C29.06 50 23.12 50 17 50 C17 59.24 17 68.48 17 78 C11.39 78 5.78 78 0 78 C0 52.26 0 26.52 0 0 Z M17 17 C17 22.61 17 28.22 17 34 C21.29 34 25.58 34 30 34 C30 33.34 30 32.68 30 32 C30.66 32 31.32 32 32 32 C32 30.68 32 29.36 32 28 C32.66 28 33.32 28 34 28 C34 26.35 34 24.7 34 23 C33.34 23 32.68 23 32 23 C32 21.68 32 20.36 32 19 C31.34 19 30.68 19 30 19 C30 18.34 30 17.68 30 17 C25.71 17 21.42 17 17 17 Z " fill="#211D1E" transform="translate(299,193)"/>
<path d="M0 0 C4.29 0 8.58 0 13 0 C13 0.66 13 1.32 13 2 C14.98 2 16.96 2 19 2 C19 2.66 19 3.32 19 4 C19.66 4 20.32 4 21 4 C21 4.66 21 5.32 21 6 C21.66 6 22.32 6 23 6 C26.24900602 10.97504047 27.49940808 13.88225104 27 20 C27.66 20 28.32 20 29 20 C29 25.28 29 30.56 29 36 C19.76 36 10.52 36 1 36 C1 37.65 1 39.3 1 41 C1.66 41 2.32 41 3 41 C3 41.66 3 42.32 3 43 C3.66 43 4.32 43 5 43 C5 43.66 5 44.32 5 45 C7.31 45 9.62 45 12 45 C12 43.68 12 42.36 12 41 C12.66 41 13.32 41 14 41 C14 40.34 14 39.68 14 39 C15.74965358 38.94570041 17.49979787 38.90707177 19.25 38.875 C20.22453125 38.85179687 21.1990625 38.82859375 22.203125 38.8046875 C25.0196498 39.00137219 26.60949036 39.55431084 29 41 C29 42.65 29 44.3 29 46 C28.34 46 27.68 46 27 46 C27 47.32 27 48.64 27 50 C26.34 50 25.68 50 25 50 C25 51.32 25 52.64 25 54 C24.34 54 23.68 54 23 54 C23 54.66 23 55.32 23 56 C22.34 56 21.68 56 21 56 C21 56.66 21 57.32 21 58 C19.68 58 18.36 58 17 58 C17 58.66 17 59.32 17 60 C11.39 60 5.78 60 0 60 C0 59.34 0 58.68 0 58 C-1.32 58 -2.64 58 -4 58 C-4 57.34 -4 56.68 -4 56 C-5.32 56 -6.64 56 -8 56 C-8 54.68 -8 53.36 -8 52 C-8.66 52 -9.32 52 -10 52 C-10 51.34 -10 50.68 -10 50 C-10.66 50 -11.32 50 -12 50 C-12 48.02 -12 46.04 -12 44 C-12.66 44 -13.32 44 -14 44 C-14 34.76 -14 25.52 -14 16 C-13.34 16 -12.68 16 -12 16 C-12 14.68 -12 13.36 -12 12 C-11.34 12 -10.68 12 -10 12 C-10 10.68 -10 9.36 -10 8 C-9.34 8 -8.68 8 -8 8 C-8 7.34 -8 6.68 -8 6 C-7.34 6 -6.68 6 -6 6 C-6 5.34 -6 4.68 -6 4 C-5.34 4 -4.68 4 -4 4 C-4 3.34 -4 2.68 -4 2 C-2.68 2 -1.36 2 0 2 C0 1.34 0 0.68 0 0 Z M5 15 C5 15.66 5 16.32 5 17 C4.34 17 3.68 17 3 17 C3 17.99 3 18.98 3 20 C2.34 20 1.68 20 1 20 C1 21.32 1 22.64 1 24 C5.29 24 9.58 24 14 24 C14 22.68 14 21.36 14 20 C13.34 20 12.68 20 12 20 C12 19.01 12 18.02 12 17 C11.34 17 10.68 17 10 17 C10 16.34 10 15.68 10 15 C8.35 15 6.7 15 5 15 Z " fill="#201D1E" transform="translate(551,215)"/>
<path d="M0 0 C4.29 0 8.58 0 13 0 C13 0.66 13 1.32 13 2 C14.98 2 16.96 2 19 2 C19 2.66 19 3.32 19 4 C19.66 4 20.32 4 21 4 C21 4.66 21 5.32 21 6 C21.66 6 22.32 6 23 6 C23 7.32 23 8.64 23 10 C23.66 10 24.32 10 25 10 C25 11.32 25 12.64 25 14 C25.66 14 26.32 14 27 14 C27 15.98 27 17.96 27 20 C27.66 20 28.32 20 29 20 C29 25.28 29 30.56 29 36 C19.76 36 10.52 36 1 36 C1 37.65 1 39.3 1 41 C1.66 41 2.32 41 3 41 C3 41.66 3 42.32 3 43 C3.66 43 4.32 43 5 43 C5 43.66 5 44.32 5 45 C8.465 44.505 8.465 44.505 12 44 C12 42.68 12 41.36 12 40 C14.64458379 38.67770811 16.67761301 38.90322806 19.625 38.9375 C21.12933594 38.95103516 21.12933594 38.95103516 22.6640625 38.96484375 C23.43492187 38.97644531 24.20578125 38.98804688 25 39 C25 39.66 25 40.32 25 41 C26.32 41 27.64 41 29 41 C29 41.99 29 42.98 29 44 C28.34 44 27.68 44 27 44 C27 45.98 27 47.96 27 50 C26.34 50 25.68 50 25 50 C25 51.32 25 52.64 25 54 C24.34 54 23.68 54 23 54 C23 54.66 23 55.32 23 56 C22.34 56 21.68 56 21 56 C21 56.66 21 57.32 21 58 C19.68 58 18.36 58 17 58 C17 58.66 17 59.32 17 60 C14.06225537 60.05390357 11.12549768 60.0936255 8.1875 60.125 C7.35412109 60.14175781 6.52074219 60.15851563 5.66210938 60.17578125 C4.45844727 60.18544922 4.45844727 60.18544922 3.23046875 60.1953125 C2.12288208 60.21102295 2.12288208 60.21102295 0.99291992 60.22705078 C-1 60 -1 60 -4 58 C-4 57.34 -4 56.68 -4 56 C-4.99 56 -5.98 56 -7 56 C-7 55.34 -7 54.68 -7 54 C-7.66 54 -8.32 54 -9 54 C-9.33 52.68 -9.66 51.36 -10 50 C-10.66 50 -11.32 50 -12 50 C-13.60464656 45.74896142 -14.25604177 42.22022836 -14.265625 37.68359375 C-14.26820313 36.50732422 -14.27078125 35.33105469 -14.2734375 34.11914062 C-14.26570313 32.90419922 -14.25796875 31.68925781 -14.25 30.4375 C-14.25773437 29.21869141 -14.26546875 27.99988281 -14.2734375 26.74414062 C-14.27085937 25.56916016 -14.26828125 24.39417969 -14.265625 23.18359375 C-14.26336914 22.11681396 -14.26111328 21.05003418 -14.25878906 19.95092773 C-13.99418359 16.9336765 -13.27143542 14.73257607 -12 12 C-11.34 12 -10.68 12 -10 12 C-10 10.68 -10 9.36 -10 8 C-9.34 8 -8.68 8 -8 8 C-8 7.34 -8 6.68 -8 6 C-7.34 6 -6.68 6 -6 6 C-6 5.34 -6 4.68 -6 4 C-5.34 4 -4.68 4 -4 4 C-4 3.34 -4 2.68 -4 2 C-2.68 2 -1.36 2 0 2 C0 1.34 0 0.68 0 0 Z M5 15 C5 15.66 5 16.32 5 17 C4.34 17 3.68 17 3 17 C3 17.66 3 18.32 3 19 C2.34 19 1.68 19 1 19 C1 20.65 1 22.3 1 24 C5.29 24 9.58 24 14 24 C14 22.68 14 21.36 14 20 C13.34 20 12.68 20 12 20 C12 19.01 12 18.02 12 17 C11.34 17 10.68 17 10 17 C10 16.34 10 15.68 10 15 C8.35 15 6.7 15 5 15 Z " fill="#201E1E" transform="translate(505,215)"/>
<path d="M0 0 C4.95 0 9.9 0 15 0 C15 0.66 15 1.32 15 2 C16.32 2 17.64 2 19 2 C19 2.66 19 3.32 19 4 C19.66 4 20.32 4 21 4 C21 4.66 21 5.32 21 6 C21.66 6 22.32 6 23 6 C23 6.66 23 7.32 23 8 C23.66 8 24.32 8 25 8 C25 9.32 25 10.64 25 12 C25.66 12 26.32 12 27 12 C27 14.64 27 17.28 27 20 C27.66 20 28.32 20 29 20 C29 25.28 29 30.56 29 36 C19.76 36 10.52 36 1 36 C1 37.32 1 38.64 1 40 C1.66 40 2.32 40 3 40 C3 40.99 3 41.98 3 43 C3.66 43 4.32 43 5 43 C5 43.66 5 44.32 5 45 C8.465 44.505 8.465 44.505 12 44 C12 43.01 12 42.02 12 41 C12.66 41 13.32 41 14 41 C14 39.68 14 38.36 14 37 C14.99 37 15.98 37 17 37 C17 37.99 17 38.98 17 40 C17.69867188 39.98839844 18.39734375 39.97679687 19.1171875 39.96484375 C20.02726562 39.95582031 20.93734375 39.94679687 21.875 39.9375 C22.77992188 39.92589844 23.68484375 39.91429687 24.6171875 39.90234375 C27 40 27 40 29 41 C29 42.65 29 44.3 29 46 C28.34 46 27.68 46 27 46 C27 47.32 27 48.64 27 50 C26.34 50 25.68 50 25 50 C25 51.32 25 52.64 25 54 C24.34 54 23.68 54 23 54 C23 54.66 23 55.32 23 56 C22.34 56 21.68 56 21 56 C21 56.66 21 57.32 21 58 C19.68 58 18.36 58 17 58 C17 58.66 17 59.32 17 60 C11.39 60 5.78 60 0 60 C0 59.34 0 58.68 0 58 C-1.32 58 -2.64 58 -4 58 C-4 57.34 -4 56.68 -4 56 C-4.66 56 -5.32 56 -6 56 C-6 55.34 -6 54.68 -6 54 C-6.66 54 -7.32 54 -8 54 C-8 53.34 -8 52.68 -8 52 C-8.66 52 -9.32 52 -10 52 C-10 50.68 -10 49.36 -10 48 C-10.66 48 -11.32 48 -12 48 C-12 46.02 -12 44.04 -12 42 C-12.66 42 -13.32 42 -14 42 C-14 34.08 -14 26.16 -14 18 C-13.34 18 -12.68 18 -12 18 C-12 16.02 -12 14.04 -12 12 C-11.34 12 -10.68 12 -10 12 C-10 10.68 -10 9.36 -10 8 C-9.34 8 -8.68 8 -8 8 C-8 7.34 -8 6.68 -8 6 C-7.34 6 -6.68 6 -6 6 C-6 5.34 -6 4.68 -6 4 C-5.34 4 -4.68 4 -4 4 C-4 3.34 -4 2.68 -4 2 C-2.68 2 -1.36 2 0 2 C0 1.34 0 0.68 0 0 Z M5 15 C5 15.66 5 16.32 5 17 C4.34 17 3.68 17 3 17 C1.5393715 19.64738916 1 20.89448334 1 24 C5.29 24 9.58 24 14 24 C14 22.35 14 20.7 14 19 C13.34 19 12.68 19 12 19 C12 18.34 12 17.68 12 17 C11.34 17 10.68 17 10 17 C10 16.34 10 15.68 10 15 C8.35 15 6.7 15 5 15 Z " fill="#201D1E" transform="translate(265,213)"/>
<path d="M0 0 C5.28 0 10.56 0 16 0 C16 0.66 16 1.32 16 2 C17.98 2 19.96 2 22 2 C22 2.66 22 3.32 22 4 C22.66 4 23.32 4 24 4 C24 4.66 24 5.32 24 6 C24.66 6 25.32 6 26 6 C26 7.32 26 8.64 26 10 C26.66 10 27.32 10 28 10 C28 12.97 28 15.94 28 19 C25.36 19 22.72 19 20 19 C20 19.66 20 20.32 20 21 C15.25 20.125 15.25 20.125 13 19 C12.67 18.01 12.34 17.02 12 16 C9.03 15.67 6.06 15.34 3 15 C3.33 16.65 3.66 18.3 4 20 C5.98 20 7.96 20 10 20 C10 20.66 10 21.32 10 22 C11.98 22 13.96 22 16 22 C16 22.66 16 23.32 16 24 C17.98 24 19.96 24 22 24 C22 24.66 22 25.32 22 26 C22.66 26 23.32 26 24 26 C24 26.66 24 27.32 24 28 C25.32 28.33 26.64 28.66 28 29 C28 30.65 28 32.3 28 34 C28.66 34 29.32 34 30 34 C30 37.96 30 41.92 30 46 C29.34 46 28.68 46 28 46 C28 47.98 28 49.96 28 52 C27.34 52 26.68 52 26 52 C26 52.66 26 53.32 26 54 C25.34 54 24.68 54 24 54 C24 54.66 24 55.32 24 56 C23.34 56 22.68 56 22 56 C22 56.66 22 57.32 22 58 C20.68 58 19.36 58 18 58 C18 58.66 18 59.32 18 60 C12.06 60 6.12 60 0 60 C0 59.34 0 58.68 0 58 C-1.32 58 -2.64 58 -4 58 C-4 57.34 -4 56.68 -4 56 C-4.66 56 -5.32 56 -6 56 C-6 55.34 -6 54.68 -6 54 C-6.66 54 -7.32 54 -8 54 C-8 53.34 -8 52.68 -8 52 C-8.66 52 -9.32 52 -10 52 C-10 50.68 -10 49.36 -10 48 C-10.66 48 -11.32 48 -12 48 C-12 45.36 -12 42.72 -12 40 C-9.36 40 -6.72 40 -4 40 C-4 39.01 -4 38.02 -4 37 C-2.02 37 -0.04 37 2 37 C2.66 39.64 3.32 42.28 4 45 C7.25229215 46.02214896 8.58923143 46.18671298 11.75 44.75 C14.26579384 43.12711879 14.26579384 43.12711879 15 40 C13.68 40 12.36 40 11 40 C11 39.34 11 38.68 11 38 C9.02 38 7.04 38 5 38 C5 37.34 5 36.68 5 36 C3.35 36 1.7 36 0 36 C0 35.34 0 34.68 0 34 C-1.98 33.67 -3.96 33.34 -6 33 C-6 32.01 -6 31.02 -6 30 C-6.66 30 -7.32 30 -8 30 C-8 29.34 -8 28.68 -8 28 C-8.66 28 -9.32 28 -10 28 C-10 26.02 -10 24.04 -10 22 C-10.66 22 -11.32 22 -12 22 C-12 19.36 -12 16.72 -12 14 C-11.34 14 -10.68 14 -10 14 C-10 12.02 -10 10.04 -10 8 C-9.34 8 -8.68 8 -8 8 C-8 7.34 -8 6.68 -8 6 C-7.34 6 -6.68 6 -6 6 C-6 5.34 -6 4.68 -6 4 C-5.34 4 -4.68 4 -4 4 C-4 3.34 -4 2.68 -4 2 C-2.68 2 -1.36 2 0 2 C0 1.34 0 0.68 0 0 Z " fill="#201D1E" transform="translate(218,213)"/>
<path d="M0 0 C3.96 0 7.92 0 12 0 C12 0.66 12 1.32 12 2 C13.32 2 14.64 2 16 2 C16 2.66 16 3.32 16 4 C16.66 4 17.32 4 18 4 C18 5.32 18 6.64 18 8 C18.66 8 19.32 8 20 8 C21.79576114 14.13914191 22.27033015 19.59232261 22.1953125 25.96875 C22.1924826 26.88966431 22.18965271 27.81057861 22.18673706 28.75939941 C22.17562775 31.67307052 22.15054078 34.58642331 22.125 37.5 C22.11495823 39.4869747 22.10583448 41.47395426 22.09765625 43.4609375 C22.07571879 48.30741252 22.04125361 53.15365247 22 58 C17.38 58 12.76 58 8 58 C8 46.45 8 34.9 8 23 C7.34 23 6.68 23 6 23 C6 21.02 6 19.04 6 17 C5.34 17 4.68 17 4 17 C4 16.34 4 15.68 4 15 C2.35 15 0.7 15 -1 15 C-1 15.66 -1 16.32 -1 17 C-1.48608231 17.45727982 -1.97216461 17.91455963 -2.47297668 18.38569641 C-5.10774554 21.1710611 -4.48314951 24.95839936 -4.51171875 28.60546875 C-4.52966995 29.44467361 -4.54762115 30.28387848 -4.56611633 31.14851379 C-4.62028563 33.82812479 -4.65413573 36.50755702 -4.6875 39.1875 C-4.72066729 41.00458221 -4.7551564 42.8216408 -4.79101562 44.63867188 C-4.87601572 49.09231905 -4.94279502 53.54591259 -5 58 C-9.95 58 -14.9 58 -20 58 C-20 39.52 -20 21.04 -20 2 C-15.71 2 -11.42 2 -7 2 C-6.67 2.66 -6.34 3.32 -6 4 C-5.34 4 -4.68 4 -4 4 C-4 3.34 -4 2.68 -4 2 C-2.68 2 -1.36 2 0 2 C0 1.34 0 0.68 0 0 Z " fill="#201D1E" transform="translate(464,215)"/>
<path d="M0 0 C0.66 0 1.32 0 2 0 C2 0.66 2 1.32 2 2 C2.66 2 3.32 2 4 2 C4 2.66 4 3.32 4 4 C4.66 4 5.32 4 6 4 C6 4.66 6 5.32 6 6 C11.28 6 16.56 6 22 6 C22 6.66 22 7.32 22 8 C25.3 8 28.6 8 32 8 C32 8.66 32 9.32 32 10 C33.32 10 34.64 10 36 10 C36 10.66 36 11.32 36 12 C37.32 12 38.64 12 40 12 C40 12.66 40 13.32 40 14 C40.66 14 41.32 14 42 14 C42 14.66 42 15.32 42 16 C42.66 16 43.32 16 44 16 C44 16.66 44 17.32 44 18 C44.66 18 45.32 18 46 18 C46 19.32 46 20.64 46 22 C46.66 22 47.32 22 48 22 C48 28.6 48 35.2 48 42 C47.34 42 46.68 42 46 42 C46 43.98 46 45.96 46 48 C45.34 48 44.68 48 44 48 C44 49.32 44 50.64 44 52 C42.35 52 40.7 52 39 52 C39 51.34 39 50.68 39 50 C38.34 50 37.68 50 37 50 C37 49.34 37 48.68 37 48 C36.34 48 35.68 48 35 48 C35 47.34 35 46.68 35 46 C34.34 46 33.68 46 33 46 C33 40.39 33 34.78 33 29 C32.34 29 31.68 29 31 29 C31 28.34 31 27.68 31 27 C30.34 27 29.68 27 29 27 C29 26.34 29 25.68 29 25 C27.35 25 25.7 25 24 25 C24 26.32 24 27.64 24 29 C21.03 29 18.06 29 15 29 C15 28.34 15 27.68 15 27 C10.38 27 5.76 27 1 27 C1 26.34 1 25.68 1 25 C0.34 25 -0.32 25 -1 25 C-1.02886984 21.02084841 -1.04675406 17.04172347 -1.0625 13.0625 C-1.07087891 11.92619141 -1.07925781 10.78988281 -1.08789062 9.61914062 C-1.09111328 8.53955078 -1.09433594 7.45996094 -1.09765625 6.34765625 C-1.10289307 5.34742432 -1.10812988 4.34719238 -1.11352539 3.31665039 C-1 1 -1 1 0 0 Z " fill="#2567A9" transform="translate(391,205)"/>
<path d="M0 0 C1.65 0 3.3 0 5 0 C5 0.66 5 1.32 5 2 C5.66 2 6.32 2 7 2 C7 2.66 7 3.32 7 4 C7.66 4 8.32 4 9 4 C9 4.66 9 5.32 9 6 C9.66 6 10.32 6 11 6 C11 10.29 11 14.58 11 19 C11.66 19 12.32 19 13 19 C13 20.65 13 22.3 13 24 C15.97 24.99 18.94 25.98 22 27 C22 25.02 22 23.04 22 21 C23.65 21.33 25.3 21.66 27 22 C27 22.66 27 23.32 27 24 C28.27617187 23.98839844 29.55234375 23.97679687 30.8671875 23.96484375 C32.53645687 23.95546583 34.20572783 23.94636563 35.875 23.9375 C36.71675781 23.92912109 37.55851562 23.92074219 38.42578125 23.91210938 C39.23144531 23.90888672 40.03710938 23.90566406 40.8671875 23.90234375 C41.98262939 23.89448853 41.98262939 23.89448853 43.12060547 23.88647461 C45 24 45 24 47 25 C47 32.59 47 40.18 47 48 C45.35 48 43.7 48 42 48 C42 47.34 42 46.68 42 46 C41.34 46 40.68 46 40 46 C40 45.34 40 44.68 40 44 C32.74 44 25.48 44 18 44 C18 43.34 18 42.68 18 42 C15.36 42 12.72 42 10 42 C10 41.34 10 40.68 10 40 C8.68 40 7.36 40 6 40 C6 39.34 6 38.68 6 38 C5.34 38 4.68 38 4 38 C4 37.34 4 36.68 4 36 C3.34 36 2.68 36 2 36 C2 35.34 2 34.68 2 34 C1.34 34 0.68 34 0 34 C0 32.68 0 31.36 0 30 C-0.66 30 -1.32 30 -2 30 C-2 28.02 -2 26.04 -2 24 C-2.66 24 -3.32 24 -4 24 C-4 20.04 -4 16.08 -4 12 C-3.34 12 -2.68 12 -2 12 C-2 9.36 -2 6.72 -2 4 C-1.34 4 -0.68 4 0 4 C0 2.68 0 1.36 0 0 Z " fill="#F3C21F" transform="translate(378,229)"/>
<path d="M0 0 C3.3 0 6.6 0 10 0 C10 0.66 10 1.32 10 2 C10.66 2 11.32 2 12 2 C12.21824777 8.0018137 11.5056904 13.19233704 10 19 C8.68 19 7.36 19 6 19 C6 18.34 6 17.68 6 17 C4.02 17.66 2.04 18.32 0 19 C-0.33 21.31 -0.66 23.62 -1 26 C-1.99 26 -2.98 26 -4 26 C-4 36.56 -4 47.12 -4 58 C-8.62 58 -13.24 58 -18 58 C-18 39.52 -18 21.04 -18 2 C-13.38 2 -8.76 2 -4 2 C-4 2.66 -4 3.32 -4 4 C-3.34 4 -2.68 4 -2 4 C-2 3.34 -2 2.68 -2 2 C-1.34 2 -0.68 2 0 2 C0 1.34 0 0.68 0 0 Z " fill="#201D1E" transform="translate(603,215)"/>
<path d="M0 0 C4.95 0 9.9 0 15 0 C15 18.48 15 36.96 15 56 C10.05 56 5.1 56 0 56 C0 37.52 0 19.04 0 0 Z " fill="#201D1D" transform="translate(354,215)"/>
<path d="M0 0 C4.95 0 9.9 0 15 0 C15 18.48 15 36.96 15 56 C10.05 56 5.1 56 0 56 C0 37.52 0 19.04 0 0 Z " fill="#201D1E" transform="translate(186,215)"/>
<path d="M0 0 C6.27 0 12.54 0 19 0 C19 2.64 19 5.28 19 8 C18.34 8 17.68 8 17 8 C17.04125 8.86625 17.0825 9.7325 17.125 10.625 C16.99542279 14.12358468 16.23980344 16.74551597 15 20 C14.34 20 13.68 20 13 20 C13 22.31 13 24.62 13 27 C12.01 27.33 11.02 27.66 10 28 C10 28.99 10 29.98 10 31 C9.34 31 8.68 31 8 31 C8 29.02 8 27.04 8 25 C7.34 25 6.68 25 6 25 C5.7525 24.05125 5.505 23.1025 5.25 22.125 C4.14195134 18.15047763 2.51891044 14.47017282 0.8046875 10.72265625 C0 8 0 8 0 0 Z " fill="#5BABD7" transform="translate(110,193)"/>
<path d="M0 0 C4.95 0 9.9 0 15 0 C15 5.61 15 11.22 15 17 C10.05 17 5.1 17 0 17 C0 11.39 0 5.78 0 0 Z " fill="#201D1D" transform="translate(354,193)"/>
<path d="M0 0 C4.95 0 9.9 0 15 0 C15 5.61 15 11.22 15 17 C10.05 17 5.1 17 0 17 C0 11.39 0 5.78 0 0 Z " fill="#201D1D" transform="translate(186,193)"/>
<path d="M0 0 C4.29 0 8.58 0 13 0 C13 1.32 13 2.64 13 4 C12.34 4 11.68 4 11 4 C11 5.32 11 6.64 11 8 C9.35 8 7.7 8 6 8 C6 7.34 6 6.68 6 6 C5.34 6 4.68 6 4 6 C4 5.34 4 4.68 4 4 C3.34 4 2.68 4 2 4 C2 3.34 2 2.68 2 2 C1.34 2 0.68 2 0 2 C0 1.34 0 0.68 0 0 Z " fill="#5FAFDB" transform="translate(424,249)"/>
</svg>
