<?xml version="1.0" encoding="UTF-8"?>
<svg version="1.1" xmlns="http://www.w3.org/2000/svg" width="128" height="128">
<path d="M0 0 C42.24 0 84.48 0 128 0 C128 42.24 128 84.48 128 128 C85.76 128 43.52 128 0 128 C0 85.76 0 43.52 0 0 Z " fill="#F7F7F7" transform="translate(0,0)"/>
<path d="M0 0 C1.29997925 0.00303635 1.29997925 0.00303635 2.6262207 0.00613403 C3.51027588 0.00517731 4.39433105 0.00422058 5.30517578 0.00323486 C7.178142 0.00255302 9.05111056 0.0044076 10.92407227 0.00857544 C13.80140458 0.01392364 16.67858078 0.0086306 19.5559082 0.00222778 C21.37101272 0.00288856 23.18611713 0.00416972 25.0012207 0.00613403 C25.86787354 0.0041098 26.73452637 0.00208557 27.62744141 0 C33.69877061 0.02399644 33.69877061 0.02399644 34.8137207 1.13894653 C34.90712504 2.76569431 34.93117241 4.39648705 34.92724609 6.02590942 C34.92717056 7.06691299 34.92709503 8.10791656 34.92701721 9.1804657 C34.92185593 10.31274094 34.91669464 11.44501617 34.91137695 12.61160278 C34.90996201 13.76438217 34.90854706 14.91716156 34.90708923 16.10487366 C34.90147076 19.80375717 34.88891512 23.50258117 34.8762207 27.20144653 C34.87120808 29.7020967 34.86664477 32.20274782 34.86254883 34.70339966 C34.85149532 40.84860241 34.83473922 46.99377022 34.8137207 53.13894653 C35.8037207 53.13894653 36.7937207 53.13894653 37.8137207 53.13894653 C37.8137207 54.12894653 37.8137207 55.11894653 37.8137207 56.13894653 C21.9737207 56.13894653 6.1337207 56.13894653 -10.1862793 56.13894653 C-10.1862793 55.14894653 -10.1862793 54.15894653 -10.1862793 53.13894653 C-9.1962793 53.13894653 -8.2062793 53.13894653 -7.1862793 53.13894653 C-7.18849991 52.48970718 -7.19072052 51.84046783 -7.19300842 51.17155457 C-7.21505931 44.44006905 -7.23018507 37.70859372 -7.24121094 30.9770813 C-7.24625293 28.46177758 -7.25308632 25.94647682 -7.26171875 23.43118286 C-7.27379024 19.82464879 -7.27950879 16.21815331 -7.28393555 12.61160278 C-7.28909683 11.47932755 -7.29425812 10.34705231 -7.29957581 9.1804657 C-7.29965134 8.13946213 -7.29972687 7.09845856 -7.29980469 6.02590942 C-7.3020253 5.10435562 -7.30424591 4.18280182 -7.30653381 3.23332214 C-7.04856785 -1.25946236 -3.73937336 0.01477957 0 0 Z " fill="#8A8A8A" transform="translate(52.186279296875,34.861053466796875)"/>
<path d="M0 0 C1.98 0 3.96 0 6 0 C6 3.3 6 6.6 6 10 C4.02 10 2.04 10 0 10 C0 6.7 0 3.4 0 0 Z " fill="#F7F7F7" transform="translate(63,77)"/>
<path d="M0 0 C1.99954746 -0.04254356 4.00041636 -0.04080783 6 0 C7 1 7 1 7.125 3.5 C7 6 7 6 6 7 C4.00041636 7.04080783 1.99954746 7.04254356 0 7 C0 4.69 0 2.38 0 0 Z " fill="#F1F1F1" transform="translate(70,63)"/>
<path d="M0 0 C1.99954746 -0.04254356 4.00041636 -0.04080783 6 0 C7 1 7 1 7.125 3.5 C7 6 7 6 6 7 C4.00041636 7.04080783 1.99954746 7.04254356 0 7 C0 4.69 0 2.38 0 0 Z " fill="#F1F1F1" transform="translate(56,63)"/>
<path d="M0 0 C1.99954746 -0.04254356 4.00041636 -0.04080783 6 0 C7 1 7 1 7.125 3.5 C7 6 7 6 6 7 C4.00041636 7.04080783 1.99954746 7.04254356 0 7 C0 4.69 0 2.38 0 0 Z " fill="#F1F1F1" transform="translate(70,42)"/>
<path d="M0 0 C1.99954746 -0.04254356 4.00041636 -0.04080783 6 0 C7 1 7 1 7.125 3.5 C7 6 7 6 6 7 C4.00041636 7.04080783 1.99954746 7.04254356 0 7 C0 4.69 0 2.38 0 0 Z " fill="#F1F1F1" transform="translate(56,42)"/>
<path d="M0 0 C1.98 0 3.96 0 6 0 C6 1.98 6 3.96 6 6 C4.02 6 2.04 6 0 6 C0 4.02 0 2.04 0 0 Z " fill="#F8F8F8" transform="translate(70,53)"/>
<path d="M0 0 C1.98 0 3.96 0 6 0 C6 1.98 6 3.96 6 6 C4.02 6 2.04 6 0 6 C0 4.02 0 2.04 0 0 Z " fill="#F8F8F8" transform="translate(56,53)"/>
<path d="M0 0 C0.33 0 0.66 0 1 0 C1 2.31 1 4.62 1 7 C-1.31 7 -3.62 7 -6 7 C-5.02433888 5.83040013 -4.044375 4.66438823 -3.0625 3.5 C-2.51722656 2.8503125 -1.97195312 2.200625 -1.41015625 1.53125 C-0.71212891 0.77328125 -0.71212891 0.77328125 0 0 Z " fill="#47704C" transform="translate(127,121)"/>
<path d="M0 0 C1.16959987 0.97566112 2.33561177 1.955625 3.5 2.9375 C4.1496875 3.48277344 4.799375 4.02804688 5.46875 4.58984375 C5.9740625 5.05519531 6.479375 5.52054687 7 6 C7 6.33 7 6.66 7 7 C4.69 7 2.38 7 0 7 C0 4.69 0 2.38 0 0 Z " fill="#47704C" transform="translate(0,121)"/>
<path d="M0 0 C2.31 0 4.62 0 7 0 C7 2.31 7 4.62 7 7 C5.83040013 6.02433888 4.66438823 5.044375 3.5 4.0625 C2.8503125 3.51722656 2.200625 2.97195312 1.53125 2.41015625 C1.0259375 1.94480469 0.520625 1.47945313 0 1 C0 0.67 0 0.34 0 0 Z " fill="#47704C" transform="translate(121,0)"/>
<path d="M0 0 C2.31 0 4.62 0 7 0 C6.02433888 1.16959987 5.044375 2.33561177 4.0625 3.5 C3.51722656 4.1496875 2.97195312 4.799375 2.41015625 5.46875 C1.94480469 5.9740625 1.47945313 6.479375 1 7 C0.67 7 0.34 7 0 7 C0 4.69 0 2.38 0 0 Z " fill="#47704C" transform="translate(0,0)"/>
</svg>
